<?xml version="1.0" encoding="utf-8"?>
<!-- Generator: Adobe Illustrator 25.4.1, SVG Export Plug-In . SVG Version: 6.00 Build 0)  -->
<svg version="1.1" id="moon" xmlns="http://www.w3.org/2000/svg" xmlns:xlink="http://www.w3.org/1999/xlink" x="0px" y="0px"
	 viewBox="0 0 70 70" style="enable-background:new 0 0 70 70;" xml:space="preserve">
<style type="text/css">
	.st0{clip-path:url(#SVGID_00000075868126793557356980000010994011982425759403_);}
</style>
<g>
	<defs>
		<path id="SVGID_1_" d="M0,0v70h70V0H0z M35,43c-4.4,0-8-3.6-8-8c0-3.8,2.7-7,6.2-7.8c0.9,4.9,4.7,8.7,9.6,9.6
			C42,40.3,38.8,43,35,43z"/>
	</defs>
	<clipPath id="SVGID_00000041288836359141905830000006193454488687984004_">
		<use xlink:href="#SVGID_1_"  style="overflow:visible;"/>
	</clipPath>
	<g style="clip-path:url(#SVGID_00000041288836359141905830000006193454488687984004_);">
		<path d="M35,47c-6.6,0-12-5.4-12-12c0-6.6,5.4-12,12-12c0.8,0,1.5,0.1,2.2,0.2C37.1,23.8,37,24.4,37,25c0,4.4,3.6,8,8,8
			c0.6,0,1.2-0.1,1.8-0.2c0.1,0.7,0.2,1.5,0.2,2.2C47,41.6,41.6,47,35,47z"/>
	</g>
</g>
</svg>
