<?xml version="1.0" encoding="utf-8"?>
<!-- Generator: Adobe Illustrator 25.4.1, SVG Export Plug-In . SVG Version: 6.00 Build 0)  -->
<svg version="1.1" id="Layer_1" xmlns="http://www.w3.org/2000/svg" xmlns:xlink="http://www.w3.org/1999/xlink" x="0px" y="0px"
	 viewBox="0 0 51 51" style="enable-background:new 0 0 51 51;" xml:space="preserve">
<style type="text/css">
	.st0{fill:#1B2934;}
</style>
<path class="st0" d="M38.6,30.8v-4.3c2.2-1.4,3.7-3.9,3.7-6.7c0-4.3-3.3-7.8-7.5-7.8c-1.5,0-2.9,0.5-4,1.3
	c-1.1-5.2-5.5-9.1-10.9-9.1C13.8,4.3,8.9,9.6,8.9,16c0,3.4,1.5,6.6,3.7,8.7v4.8C8,26.7,5.1,21.8,5.1,16.1c0-8.6,6.7-15.6,14.9-15.6
	c5.5,0,10.4,3.1,13,8c0.6-0.1,1.2-0.2,1.8-0.2c6.1,0,11.1,5.3,11.1,11.6C46.1,24.9,43,29.3,38.6,30.8z M18.2,19.8
	c1,0,1.8,0.8,1.8,1.9v15.6c0,1-0.8,1.9-1.8,1.9s-1.9-0.8-1.9-1.9V21.7C16.3,20.7,17.2,19.8,18.2,19.8z M25.6,23.7
	c1,0,1.8,0.8,1.8,1.9v15.6c0,1-0.8,1.9-1.8,1.9c-1,0-1.8-0.8-1.8-1.9V25.6C23.7,24.6,24.7,23.7,25.6,23.7z M33.1,19.8
	c1,0,1.8,0.8,1.8,1.9v15.6c0,1-0.8,1.9-1.8,1.9c-1,0-1.8-0.8-1.8-1.9V21.7C31.2,20.7,32.1,19.8,33.1,19.8z"/>
</svg>
