<?xml version="1.0" encoding="utf-8"?>
<!-- Generator: Adobe Illustrator 23.0.6, SVG Export Plug-In . SVG Version: 6.00 Build 0)  -->
<svg version="1.1" id="Layer_1" xmlns="http://www.w3.org/2000/svg" xmlns:xlink="http://www.w3.org/1999/xlink" x="0px" y="0px"
	 viewBox="0 0 51 51" style="enable-background:new 0 0 51 51;" xml:space="preserve">
<style type="text/css">
	.st0{fill:#1B2934;}
</style>
<path class="st0" d="M37.4,32.6v-4c3.4-0.9,6-4,6-7.7c0-4.4-3.6-7.9-8-7.9c-1.6,0-3.1,0.5-4.3,1.3c-1.2-5.2-6-9.2-11.7-9.2
	c-6.5,0.1-12,5.4-12,12c0,4.4,2.4,8.2,6,10.3v4.4c-5.8-2.5-10-8.1-10-14.7c0-8.7,7.1-15.8,15.9-15.8c6,0,11.2,3.3,13.9,8.1
	c0.7-0.1,1.3-0.2,2-0.2c6.5,0,12,5.3,12,11.9C47.4,26.9,43.1,31.7,37.4,32.6z M18.6,26.9c0.6-0.9,1.8-1.3,2.7-0.7l2.2,1.3V25
	c0-1.1,0.9-2,2-2s2,0.9,2,2v2.5l2.2-1.3c1-0.6,2.2-0.2,2.7,0.7c0.6,0.9,0.2,2.1-0.7,2.7l-2.1,1.3l2.1,1.3c1,0.6,1.3,1.8,0.7,2.7
	c-0.6,0.9-1.8,1.3-2.7,0.7l-2.2-1.2v2.5c0,1.1-0.9,2-2,2s-2-0.9-2-2v-2.5l-2.2,1.3c-1,0.6-2.2,0.2-2.7-0.7c-0.6-0.9-0.2-2.1,0.7-2.7
	l2.2-1.3l-2.2-1.3C18.4,29,18,27.8,18.6,26.9z M25.5,32.8c1.1,0,2-0.9,2-2s-0.9-2-2-2s-2,0.9-2,2C23.5,31.9,24.4,32.8,25.5,32.8z"/>
</svg>
