<?xml version="1.0" encoding="utf-8"?>
<!-- Generator: Adobe Illustrator 23.0.6, SVG Export Plug-In . SVG Version: 6.00 Build 0)  -->
<svg version="1.1" id="Layer_1" xmlns="http://www.w3.org/2000/svg" xmlns:xlink="http://www.w3.org/1999/xlink" x="0px" y="0px"
	 viewBox="0 0 51 51" style="enable-background:new 0 0 51 51;" xml:space="preserve">
<style type="text/css">
	.st0{fill:#1B2934;}
</style>
<path class="st0" d="M19.5,32.6c-8.8,0-15.9-7.1-15.9-15.9S10.7,0.9,19.5,0.9c6,0,11.2,3.3,13.9,8.2c0.7-0.1,1.3-0.2,2-0.2
	c6.5,0,12,5.3,12,12s-5.4,12-12,12C32.8,32.6,22.7,32.6,19.5,32.6z M35.5,28.7c4.4,0,8-3.6,8-7.9s-3.6-7.9-8-7.9
	c-1.6,0-3.1,0.5-4.3,1.3C30,9,25.2,5,19.5,5c-6.5,0-12,5.3-12,12s5.4,12,12,12C23.2,28.7,32.5,28.7,35.5,28.7z"/>
</svg>
