<?xml version="1.0" encoding="utf-8"?>
<!-- Generator: Adobe Illustrator 23.0.6, SVG Export Plug-In . SVG Version: 6.00 Build 0)  -->
<svg version="1.1" id="Layer_1" xmlns="http://www.w3.org/2000/svg" xmlns:xlink="http://www.w3.org/1999/xlink" x="0px" y="0px"
	 viewBox="0 0 51 51" style="enable-background:new 0 0 51 51;" xml:space="preserve">
<style type="text/css">
	.st0{fill:#1B2934;}
</style>
<path class="st0" d="M39.3,32.1v-4.4c2.4-1.4,4-4,4-6.8c0-4.4-3.5-7.9-7.9-7.9c-1.5,0-3.1,0.5-4.3,1.3C30,8.9,25.2,5,19.6,5
	C13,5,7.7,10.3,7.7,16.9c0,3.4,1.5,6.6,4,8.9v4.8c-4.8-2.8-7.9-7.8-7.9-13.7C3.7,8.2,10.9,1,19.6,1c5.9,0,11.1,3.3,13.8,8.1
	c0.7-0.1,1.3-0.2,2-0.2c6.5,0,11.9,5.3,11.9,11.9C47.3,26.1,44,30.4,39.3,32.1z M17.6,24.8c1.1,0,2,0.9,2,2c0,1.1-0.9,2-2,2
	s-2-0.9-2-2S16.5,24.8,17.6,24.8z M17.6,32.8c1.1,0,2,0.9,2,2s-0.9,2-2,2s-2-0.9-2-2C15.6,33.6,16.5,32.8,17.6,32.8z M25.5,28.8
	c1.1,0,2,0.9,2,2s-0.9,2-2,2s-2-0.9-2-2S24.4,28.8,25.5,28.8z M25.5,36.7c1.1,0,2,0.9,2,2s-0.9,2-2,2s-2-0.9-2-2
	S24.4,36.7,25.5,36.7z M33.4,24.8c1.1,0,2,0.9,2,2c0,1.1-0.9,2-2,2s-2-0.9-2-2S32.3,24.8,33.4,24.8z M33.4,32.8c1.1,0,2,0.9,2,2
	s-0.9,2-2,2s-2-0.9-2-2C31.4,33.6,32.3,32.8,33.4,32.8z"/>
</svg>
