<?xml version="1.0" encoding="utf-8"?>
<!-- Generator: Adobe Illustrator 23.0.6, SVG Export Plug-In . SVG Version: 6.00 Build 0)  -->
<svg version="1.1" id="Layer_1" xmlns="http://www.w3.org/2000/svg" xmlns:xlink="http://www.w3.org/1999/xlink" x="0px" y="0px"
	 viewBox="0 0 51 53.9" style="enable-background:new 0 0 51 53.9;" xml:space="preserve">
<style type="text/css">
	.st0{fill:#1B2934;}
</style>
<path class="st0" d="M39.8,33.7v-4.6c2.4-1.5,4-4.2,4-7.2c0-4.6-3.6-8.4-8.1-8.4c-1.6,0-3.1,0.5-4.3,1.4c-1.2-5.6-6-9.8-11.8-9.8
	c-6.6,0-12,5.7-12,12.6c0,3.7,1.6,7.1,4,9.4v5.2c-4.9-3-8.1-8.3-8.1-14.5c0-9.3,7.2-16.9,16.1-16.9c6,0,11.3,3.4,14.1,8.6
	c0.7-0.1,1.3-0.2,2-0.2c6.6,0,12,5.7,12,12.6C47.9,27.4,44.5,32.1,39.8,33.7z M17.7,21.8c1.1,0,2,0.9,2,2.1v16.9
	c0,1.1-0.9,2.1-2,2.1s-2.1-0.9-2.1-2.1V23.9C15.6,22.8,16.6,21.8,17.7,21.8z M25.7,26c1.1,0,2,0.9,2,2.1V45c0,1.1-0.9,2.1-2,2.1
	s-2-0.9-2-2.1V28.1C23.7,27,24.7,26,25.7,26z M33.8,21.8c1.1,0,2,0.9,2,2.1v16.9c0,1.1-0.9,2.1-2,2.1s-2-0.9-2-2.1V23.9
	C31.8,22.8,32.7,21.8,33.8,21.8z"/>
</svg>
