<?xml version="1.0" encoding="utf-8"?>
<!-- Generator: Adobe Illustrator 23.0.6, SVG Export Plug-In . SVG Version: 6.00 Build 0)  -->
<svg version="1.1" id="Layer_1" xmlns="http://www.w3.org/2000/svg" xmlns:xlink="http://www.w3.org/1999/xlink" x="0px" y="0px"
	 viewBox="0 0 51 51" style="enable-background:new 0 0 51 51;" xml:space="preserve">
<style type="text/css">
	.st0{fill:#1B2934;}
</style>
<path class="st0" d="M25.5,28.5c-6.6,0-12-5.4-12-12s5.4-12,12-12c0.8,0,1.5,0.1,2.2,0.2c-0.1,0.6-0.2,1.2-0.2,1.8c0,4.4,3.6,8,8,8
	c0.6,0,1.2-0.1,1.8-0.2c0.1,0.7,0.2,1.5,0.2,2.2C37.5,23.1,32.1,28.5,25.5,28.5z M23.7,8.7c-3.5,0.8-6.2,4-6.2,7.8c0,4.4,3.6,8,8,8
	c3.8,0,7-2.7,7.8-6.2C28.4,17.4,24.6,13.6,23.7,8.7z"/>
</svg>
