<?xml version="1.0" encoding="utf-8"?>
<!-- Generator: Adobe Illustrator 23.0.6, SVG Export Plug-In . SVG Version: 6.00 Build 0)  -->
<svg version="1.1" id="Layer_1" xmlns="http://www.w3.org/2000/svg" xmlns:xlink="http://www.w3.org/1999/xlink" x="0px" y="0px"
	 viewBox="0 0 51 51" style="enable-background:new 0 0 51 51;" xml:space="preserve">
<style type="text/css">
	.st0{fill:#1B2934;}
</style>
<path class="st0" d="M45.3,24.2h-3.6c-1,0-1.8-0.9-1.8-1.8s0.9-1.8,1.8-1.8h3.6c1,0,1.8,0.9,1.8,1.8S46.4,24.2,45.3,24.2z
	 M38.2,12.1c-0.7,0.7-1.8,0.7-2.6,0c-0.7-0.7-0.7-1.8,0-2.6l2.6-2.6c0.7-0.7,1.8-0.7,2.6,0c0.7,0.7,0.7,1.8,0,2.6L38.2,12.1z
	 M25.4,33.3c-6,0-10.9-4.9-10.9-10.9s4.9-10.9,10.9-10.9s10.9,4.9,10.9,10.9S31.4,33.3,25.4,33.3z M25.4,15.1c-4,0-7.3,3.3-7.3,7.3
	s3.3,7.3,7.3,7.3s7.3-3.3,7.3-7.3S29.3,15.1,25.4,15.1z M25.4,7.9c-1,0-1.8-0.9-1.8-1.8V2.4c0-1,0.9-1.8,1.8-1.8s1.8,0.9,1.8,1.8V6
	C27.2,7,26.3,7.9,25.4,7.9z M12.6,12.1L9.9,9.5c-0.7-0.7-0.7-1.8,0-2.6s1.8-0.7,2.6,0l2.6,2.6c0.7,0.7,0.7,1.8,0,2.6
	C14.3,12.8,13.2,12.8,12.6,12.1z M10.9,22.4c0,1-0.9,1.8-1.8,1.8H5.4c-1,0-1.8-0.9-1.8-1.8s0.9-1.8,1.8-1.8H9
	C10,20.6,10.9,21.4,10.9,22.4z M12.6,32.6c0.7-0.7,1.8-0.7,2.6,0c0.7,0.7,0.7,1.8,0,2.6l-2.6,2.7c-0.7,0.7-1.8,0.7-2.6,0
	s-0.7-1.8,0-2.6L12.6,32.6z M25.4,36.9c1,0,1.8,0.9,1.8,1.8v3.6c0,1-0.9,1.8-1.8,1.8s-1.8-0.9-1.8-1.8v-3.6
	C23.6,37.7,24.4,36.9,25.4,36.9z M38.2,32.6l2.6,2.6c0.7,0.7,0.7,1.8,0,2.6c-0.7,0.7-1.8,0.7-2.6,0l-2.6-2.6c-0.7-0.7-0.7-1.8,0-2.6
	S37.5,31.9,38.2,32.6z"/>
</svg>
