<?xml version="1.0" encoding="utf-8"?>
<!-- Generator: Adobe Illustrator 22.1.0, SVG Export Plug-In . SVG Version: 6.00 Build 0)  -->
<svg version="1.1" id="Layer_1" xmlns="http://www.w3.org/2000/svg" xmlns:xlink="http://www.w3.org/1999/xlink" x="0px" y="0px"
	 viewBox="0 0 51 51" style="enable-background:new 0 0 51 51;" xml:space="preserve">
<style type="text/css">
	.st0{fill:#1B2934;}
</style>
<path class="st0" d="M45,23.8h-3.5c-1,0-1.8-0.9-1.8-1.8s0.9-1.8,1.8-1.8H45c1,0,1.8,0.9,1.8,1.8S46.1,23.8,45,23.8z M38,11.9
	c-0.7,0.7-1.8,0.7-2.6,0c-0.7-0.7-0.7-1.8,0-2.6L38,6.7c0.7-0.7,1.8-0.7,2.6,0c0.7,0.7,0.7,1.8,0,2.6L38,11.9z M25.4,32.9
	c-5.9,0-10.7-4.9-10.7-10.7s4.9-10.7,10.7-10.7s10.7,4.9,10.7,10.7S31.3,32.9,25.4,32.9z M25.4,14.9c-4,0-7.2,3.3-7.2,7.2
	s3.3,7.2,7.2,7.2s7.2-3.3,7.2-7.2S29.2,14.9,25.4,14.9z M25.4,7.8c-1,0-1.8-0.9-1.8-1.8V2.4c0-1,0.9-1.8,1.8-1.8s1.8,0.9,1.8,1.8
	v3.5C27.2,6.9,26.3,7.8,25.4,7.8z M12.8,11.9l-2.7-2.6c-0.7-0.7-0.7-1.8,0-2.6s1.8-0.7,2.6,0l2.6,2.6c0.7,0.7,0.7,1.8,0,2.6
	C14.5,12.7,13.3,12.7,12.8,11.9z M11.1,22c0,1-0.9,1.8-1.8,1.8H5.7c-1,0-1.8-0.9-1.8-1.8s0.9-1.8,1.8-1.8h3.5
	C10.2,20.4,11.1,21.1,11.1,22z M12.8,32.2c0.7-0.7,1.8-0.7,2.6,0c0.7,0.7,0.7,1.8,0,2.6l-2.6,2.7c-0.7,0.7-1.8,0.7-2.6,0
	c-0.8-0.7-0.7-1.8,0-2.6L12.8,32.2z M25.4,36.4c1,0,1.8,0.9,1.8,1.8v3.5c0,1-0.9,1.8-1.8,1.8c-0.9,0-1.8-0.9-1.8-1.8v-3.5
	C23.6,37.2,24.4,36.4,25.4,36.4z M38,32.2l2.6,2.6c0.7,0.7,0.7,1.8,0,2.6c-0.7,0.7-1.8,0.7-2.6,0l-2.6-2.6c-0.7-0.7-0.7-1.8,0-2.6
	C36.1,31.4,37.4,31.4,38,32.2z"/>
</svg>
