<?xml version="1.0" encoding="utf-8"?>
<!-- Generator: Adobe Illustrator 23.0.6, SVG Export Plug-In . SVG Version: 6.00 Build 0)  -->
<svg version="1.1" id="Layer_1" xmlns="http://www.w3.org/2000/svg" xmlns:xlink="http://www.w3.org/1999/xlink" x="0px" y="0px"
	 viewBox="0 0 51 51" style="enable-background:new 0 0 51 51;" xml:space="preserve">
<style type="text/css">
	.st0{fill:#FFFFFF;}
</style>
<path class="st0" d="M4.8,32.1c-0.3-0.6-0.5-1.3-0.6-2h43.3c0,0.7-0.1,1.3-0.2,2H4.8z M11.8,12.1c2.3-1.3,4.9-2,7.7-2s5.4,0.7,7.7,2
	H11.8z M3.7,24.2c0.1-0.7,0.2-1.3,0.4-2h40.2c0.6,0.6,1,1.3,1.5,2H3.7z M4.8,20.1c0.3-0.7,0.6-1.4,1-2h27.6c0,0.1,0.1,0.1,0.1,0.2
	c0.7-0.1,1.3-0.2,2-0.2c2.5,0,4.7,0.7,6.6,2H4.8z M7.1,16.2c0.6-0.7,1.2-1.4,1.9-2h21.1c0.7,0.6,1.3,1.3,1.9,2H7.1z M47.3,28.1H3.7
	c-0.1-0.7-0.1-1.3-0.1-2h43.2C46.9,26.8,47.2,27.5,47.3,28.1z M46.7,34c-0.2,0.7-0.6,1.4-0.9,2H7.1c-0.5-0.6-1-1.3-1.4-2H46.7z
	 M9,38.1h35.4c-0.7,0.8-1.4,1.4-2.3,2H11.8C10.7,39.5,9.8,38.9,9,38.1z"/>
</svg>
