<?xml version="1.0" encoding="utf-8"?>
<!-- Generator: Adobe Illustrator 23.0.6, SVG Export Plug-In . SVG Version: 6.00 Build 0)  -->
<svg version="1.1" id="Layer_1" xmlns="http://www.w3.org/2000/svg" xmlns:xlink="http://www.w3.org/1999/xlink" x="0px" y="0px"
	 viewBox="0 0 51 51" style="enable-background:new 0 0 51 51;" xml:space="preserve">
<style type="text/css">
	.st0{fill:#FFFFFF;}
</style>
<path class="st0" d="M45.8,26.5h-3.3c-0.9,0-1.6-0.8-1.6-1.6s0.8-1.6,1.6-1.6h3.3c0.9,0,1.6,0.8,1.6,1.6
	C47.4,25.8,46.7,26.5,45.8,26.5z M39.5,15.8c-0.7,0.7-1.6,0.7-2.2,0c-0.7-0.7-0.7-1.6,0-2.2l2.2-2.3c0.7-0.7,1.6-0.7,2.2,0
	c0.7,0.7,0.7,1.6,0,2.2L39.5,15.8z M37,28.4L37,28.4c1.4,1.7,2.2,3.9,2.2,6.3c0,5.3-4.4,9.7-9.7,9.7c-2.2,0-10.4,0-13,0
	c-7.1,0-13-5.8-13-13s5.8-13,13-13c1.3,0,2.5,0.2,3.7,0.6c1.8-2.2,4.6-3.8,7.7-3.8c5.3,0,9.7,4.4,9.7,9.7
	C37.7,26.2,37.5,27.4,37,28.4z M6.8,31.4c0,5.3,4.4,9.7,9.7,9.7c2.9,0,10.6,0,13,0c3.6,0,6.5-2.9,6.5-6.5s-2.9-6.5-6.5-6.5
	c-1.3,0-2.5,0.4-3.5,1c-0.9-4.3-4.9-7.6-9.5-7.6C11.2,21.7,6.8,26.1,6.8,31.4z M27.9,18.4c-1.8,0-3.4,0.8-4.6,1.9
	c1.9,1.1,3.5,2.8,4.6,4.8c0.6-0.1,1-0.2,1.6-0.2c1.7,0,3.4,0.5,4.8,1.2l0,0c0.1-0.4,0.2-0.8,0.2-1.2C34.4,21.4,31.6,18.4,27.9,18.4z
	 M27.9,11.9c-0.9,0-1.6-0.8-1.6-1.6V7c0-0.9,0.8-1.6,1.6-1.6s1.6,0.8,1.6,1.6v3.3C29.5,11.2,28.9,11.9,27.9,11.9z M16.5,15.8
	l-2.2-2.2c-0.7-0.7-0.7-1.6,0-2.2c0.7-0.7,1.6-0.7,2.2,0l2.2,2.2c0.7,0.7,0.7,1.6,0,2.2C18.2,16.4,17.2,16.4,16.5,15.8z"/>
</svg>
