<?xml version="1.0" encoding="utf-8"?>
<!-- Generator: Adobe Illustrator 23.0.6, SVG Export Plug-In . SVG Version: 6.00 Build 0)  -->
<svg version="1.1" id="Layer_1" xmlns="http://www.w3.org/2000/svg" xmlns:xlink="http://www.w3.org/1999/xlink" x="0px" y="0px"
	 viewBox="0 0 51 51" style="enable-background:new 0 0 51 51;" xml:space="preserve">
<style type="text/css">
	.st0{fill:#FFFFFF;}
</style>
<path class="st0" d="M44.3,26.1L44.3,26.1c1.4,1.9,2.1,4.2,2.1,6.7c0,6.4-5.2,11.7-11.7,11.7c-2.8,0-12.5,0-15.6,0
	c-8.6,0-15.7-7.1-15.7-15.6S10.5,13.3,19,13.3c2,0,3.8,0.4,5.6,0.9l0,0c1.5-4.6,5.9-7.8,11-7.8c0.8,0,1.5,0.1,2.2,0.2
	c-0.1,0.6-0.2,1.2-0.2,1.7c0,4.3,3.5,7.8,7.8,7.8c0.6,0,1.2-0.1,1.7-0.2c0.1,0.7,0.2,1.5,0.2,2.2C47.3,21.2,46.1,24,44.3,26.1z
	 M7.4,28.9c0,6.4,5.2,11.7,11.7,11.7c3.5,0,12.6,0,15.6,0c4.3,0,7.8-3.5,7.8-7.8S39,25,34.7,25c-1.5,0-3,0.5-4.2,1.3
	c-1.2-5.2-5.8-9-11.4-9C12.6,17.2,7.4,22.4,7.4,28.9z M26.4,15.1L26.4,15.1L26.4,15.1z M34,10.6c-2.8,0.7-5.1,2.8-5.8,5.7l0,0
	c1.9,1.4,3.4,3.1,4.6,5.1c0.7-0.1,1.3-0.2,2-0.2c2.5,0,4.9,0.8,6.8,2.2l0,0c0.9-0.9,1.5-2.1,1.7-3.4C38.6,19,34.9,15.3,34,10.6z"/>
</svg>
