<?xml version="1.0" encoding="utf-8"?>
<!-- Generator: Adobe Illustrator 22.1.0, SVG Export Plug-In . SVG Version: 6.00 Build 0)  -->
<svg version="1.1" id="Layer_1" xmlns="http://www.w3.org/2000/svg" xmlns:xlink="http://www.w3.org/1999/xlink" x="0px" y="0px"
	 viewBox="0 0 51 51" style="enable-background:new 0 0 51 51;" xml:space="preserve">
<style type="text/css">
	.st0{fill:#FFFFFF;}
</style>
<path class="st0" d="M43.7,25.3h-3.3c-0.9,0-1.7-0.8-1.7-1.7s0.8-1.7,1.7-1.7h3.3c0.9,0,1.7,0.8,1.7,1.7S44.7,25.3,43.7,25.3z
	 M37.2,14.2c-0.6,0.6-1.7,0.6-2.4,0c-0.6-0.6-0.6-1.7,0-2.4l2.4-2.4c0.6-0.6,1.7-0.6,2.4,0c0.6,0.6,0.6,1.7,0,2.4L37.2,14.2z
	 M25.4,33.7c-5.5,0-10-4.5-10-10s4.5-10,10-10s10,4.5,10,10S30.9,33.7,25.4,33.7z M25.4,16.9c-3.7,0-6.7,3-6.7,6.7s3,6.7,6.7,6.7
	s6.7-3,6.7-6.7S29,16.9,25.4,16.9z M25.4,10.3c-0.9,0-1.7-0.8-1.7-1.7V5.3c0-0.9,0.8-1.7,1.7-1.7c0.8,0,1.7,0.8,1.7,1.7v3.3
	C27.1,9.5,26.2,10.3,25.4,10.3z M13.6,14.2l-2.5-2.4c-0.6-0.6-0.6-1.7,0-2.4c0.6-0.7,1.7-0.6,2.4,0l2.4,2.4c0.6,0.6,0.6,1.7,0,2.4
	C15.2,14.8,14.2,14.8,13.6,14.2z M12.1,23.6c0,0.9-0.8,1.7-1.7,1.7H7c-0.9,0-1.7-0.8-1.7-1.7C5.3,22.8,6.2,22,7,22h3.3
	C11.2,22,12.1,22.7,12.1,23.6z M13.6,33c0.6-0.6,1.7-0.6,2.4,0c0.6,0.6,0.6,1.7,0,2.4l-2.4,2.5c-0.6,0.6-1.7,0.6-2.4,0
	s-0.6-1.7,0-2.4L13.6,33z M25.4,37c0.9,0,1.7,0.8,1.7,1.7V42c0,0.9-0.8,1.7-1.7,1.7c-0.8,0-1.7-0.8-1.7-1.7v-3.3
	C23.7,37.7,24.5,37,25.4,37z M37.2,33l2.4,2.4c0.6,0.6,0.6,1.7,0,2.4c-0.6,0.6-1.7,0.6-2.4,0l-2.4-2.4c-0.6-0.6-0.6-1.7,0-2.4
	C35.4,32.3,36.5,32.4,37.2,33z"/>
</svg>
