<?xml version="1.0" encoding="utf-8"?>
<!-- Generator: Adobe Illustrator 22.1.0, SVG Export Plug-In . SVG Version: 6.00 Build 0)  -->
<svg version="1.1" id="Layer_1" xmlns="http://www.w3.org/2000/svg" xmlns:xlink="http://www.w3.org/1999/xlink" x="0px" y="0px"
	 viewBox="0 0 51 51" style="enable-background:new 0 0 51 51;" xml:space="preserve">
<style type="text/css">
	.st0{fill:#FFFFFF;}
</style>
<path class="st0" d="M47.2,26.6h-3.5c-1,0-1.7-0.9-1.7-1.7c0-0.9,0.9-1.7,1.7-1.7h3.5c1,0,1.7,0.9,1.7,1.7
	C49,25.9,48.2,26.6,47.2,26.6z M40.5,15.2c-0.7,0.7-1.7,0.7-2.4,0c-0.7-0.7-0.7-1.7,0-2.4l2.4-2.5c0.7-0.7,1.7-0.7,2.4,0
	c0.7,0.7,0.7,1.7,0,2.4L40.5,15.2z M37.8,28.6L37.8,28.6c1.5,1.8,2.4,4.2,2.4,6.7c0,5.7-4.7,10.4-10.4,10.4c-2.4,0-11.1,0-13.9,0
	c-7.6,0-13.9-6.2-13.9-13.9s6.2-13.9,13.9-13.9c1.4,0,2.7,0.2,4,0.6c1.9-2.4,4.9-4.1,8.2-4.1c5.7,0,10.4,4.7,10.4,10.4
	C38.6,26.3,38.4,27.6,37.8,28.6z M5.5,31.9c0,5.7,4.7,10.4,10.4,10.4c3.1,0,11.3,0,13.9,0c3.9,0,7-3.1,7-7s-3.1-7-7-7
	c-1.4,0-2.7,0.4-3.7,1.1c-1-4.6-5.2-8.1-10.2-8.1C10.2,21.5,5.5,26.2,5.5,31.9z M28.1,17.9c-1.9,0-3.6,0.9-4.9,2
	c2,1.2,3.7,3,4.9,5.1c0.6-0.1,1.1-0.2,1.7-0.2c1.8,0,3.6,0.5,5.1,1.3l0,0c0.1-0.4,0.2-0.9,0.2-1.3C35,21.2,32,17.9,28.1,17.9z
	 M28.1,11c-1,0-1.7-0.9-1.7-1.7V5.7c0-1,0.9-1.7,1.7-1.7c0.9,0,1.7,0.9,1.7,1.7v3.5C29.8,10.2,29.1,11,28.1,11z M15.9,15.2l-2.4-2.4
	c-0.7-0.7-0.7-1.7,0-2.4c0.7-0.7,1.7-0.7,2.4,0l2.4,2.4c0.7,0.7,0.7,1.7,0,2.4C17.7,15.8,16.6,15.8,15.9,15.2z"/>
</svg>
