<?xml version="1.0" encoding="utf-8"?>
<!-- Generator: Adobe Illustrator 24.0.2, SVG Export Plug-In . SVG Version: 6.00 Build 0)  -->
<svg version="1.1" id="Layer_1" xmlns="http://www.w3.org/2000/svg" xmlns:xlink="http://www.w3.org/1999/xlink" x="0px" y="0px"
	 viewBox="0 0 51 51" style="enable-background:new 0 0 51 51;" xml:space="preserve">
<path d="M47.4,20.9h-2.9c-0.8,0-1.5-0.7-1.5-1.5c0-0.7,0.7-1.5,1.5-1.5h2.9c0.8,0,1.5,0.7,1.5,1.5C48.9,20.4,48.2,20.9,47.4,20.9z
	 M41.7,11.4c-0.6,0.6-1.5,0.6-2,0c-0.6-0.6-0.6-1.5,0-2l2-2.1c0.6-0.6,1.5-0.6,2,0s0.6,1.5,0,2L41.7,11.4z M39.5,22.7L39.5,22.7
	c1.3,1.6,2,3.6,2,5.6c0,4.8-4,8.7-8.7,8.7c-2,0-9.4,0-11.7,0c-6.5,0-11.8-5.2-11.8-11.7S14.6,13.7,21,13.7c1.2,0,2.3,0.2,3.4,0.6
	c1.6-2,4.1-3.5,6.9-3.5c4.8,0,8.7,3.9,8.7,8.7C40.1,20.6,39.9,21.7,39.5,22.7z M12.3,25.4c0,4.8,3.9,8.7,8.7,8.7c2.6,0,9.6,0,11.7,0
	c3.3,0,5.9-2.6,5.9-5.9s-2.6-5.9-5.9-5.9c-1.2,0-2.3,0.4-3.1,0.9c-0.8-3.9-4.4-6.8-8.6-6.8C16.2,16.6,12.3,20.6,12.3,25.4z
	 M31.3,13.6c-1.6,0-3,0.7-4.1,1.7c1.7,1,3.1,2.6,4.1,4.3c0.6-0.1,0.9-0.2,1.5-0.2c1.6,0,3,0.5,4.3,1.1l0,0c0.1-0.4,0.2-0.7,0.2-1.1
	C37.1,16.4,34.6,13.6,31.3,13.6z M31.3,7.8c-0.8,0-1.5-0.7-1.5-1.5V3.4c0-0.9,0.8-1.5,1.5-1.5s1.5,0.7,1.5,1.5v2.9
	C32.7,7.1,32.1,7.8,31.3,7.8z M21,11.4l-2-2c-0.6-0.6-0.6-1.5,0-2s1.5-0.6,2,0l2,2c0.6,0.6,0.6,1.5,0,2C22.5,11.8,21.6,11.8,21,11.4
	z"/>
</svg>
