<?xml version="1.0" encoding="utf-8"?>
<!-- Generator: Adobe Illustrator 24.0.2, SVG Export Plug-In . SVG Version: 6.00 Build 0)  -->
<svg version="1.1" id="Layer_1" xmlns="http://www.w3.org/2000/svg" xmlns:xlink="http://www.w3.org/1999/xlink" x="0px" y="0px"
	 viewBox="0 0 51 51" style="enable-background:new 0 0 51 51;" xml:space="preserve">
<path d="M34.1,25.7v-2.9c2.5-0.6,4.4-2.9,4.4-5.7c0-3.2-2.7-5.8-5.9-5.8c-1.2,0-2.3,0.4-3.1,1c-0.9-3.8-4.4-6.8-8.6-6.8
	c-4.8,0.1-8.8,4-8.8,8.8c0,3.2,1.7,6,4.4,7.5v3.2c-4.2-1.7-7.3-5.9-7.3-10.7C9.2,8,14.4,2.9,20.8,2.9c4.4,0,8.2,2.5,10.1,5.9
	c0.5-0.1,1-0.1,1.5-0.1c4.8,0,8.8,3.9,8.8,8.7C41.3,21.5,38.2,25.1,34.1,25.7z M20.4,21.5c0.4-0.6,1.3-1,1.9-0.5l1.6,1v-1.8
	c0-0.8,0.6-1.5,1.5-1.5c0.8,0,1.5,0.6,1.5,1.5V22l1.6-1c0.7-0.4,1.6-0.1,1.9,0.5c0.4,0.6,0.1,1.6-0.5,1.9l-1.6,1l1.6,1
	c0.7,0.4,1,1.3,0.5,1.9c-0.4,0.6-1.3,1-1.9,0.5l-1.6-0.9v1.8c0,0.8-0.6,1.5-1.5,1.5c-0.8,0-1.5-0.6-1.5-1.5v-1.8l-1.6,1
	c-0.7,0.4-1.6,0.1-1.9-0.5c-0.4-0.6-0.1-1.6,0.5-1.9l1.6-1l-1.6-0.9C20.2,23.1,19.8,22.3,20.4,21.5z M25.4,25.8
	c0.8,0,1.5-0.6,1.5-1.5c0-0.8-0.6-1.5-1.5-1.5c-0.8,0-1.5,0.6-1.5,1.5S24.6,25.8,25.4,25.8z"/>
</svg>
