<?xml version="1.0" encoding="utf-8"?>
<!-- Generator: Adobe Illustrator 24.0.2, SVG Export Plug-In . SVG Version: 6.00 Build 0)  -->
<svg version="1.1" id="Layer_1" xmlns="http://www.w3.org/2000/svg" xmlns:xlink="http://www.w3.org/1999/xlink" x="0px" y="0px"
	 viewBox="0 0 51 51" style="enable-background:new 0 0 51 51;" xml:space="preserve">
<path d="M8,28c-0.3-0.5-0.4-1.1-0.5-1.7H44c0,0.6-0.1,1.1-0.2,1.7H8z M13.9,11.2c1.9-1.1,4.1-1.7,6.6-1.7S25,10,27,11.2H13.9z
	 M7.1,21.3c0.1-0.6,0.2-1.1,0.3-1.7h34c0.5,0.5,0.8,1.1,1.3,1.7H7.1z M8,17.9c0.3-0.6,0.5-1.2,0.8-1.7h23.3c0,0.1,0.1,0.1,0.1,0.2
	c0.6-0.1,1.1-0.2,1.7-0.2c2.1,0,4,0.6,5.6,1.7H8z M10,14.6c0.4-0.6,1-1.2,1.6-1.7h17.9c0.6,0.5,1.1,1.1,1.6,1.7H10z M43.9,24.6H7.1
	c-0.1-0.6-0.1-1.1-0.1-1.7h36.5C43.5,23.6,43.8,24.1,43.9,24.6z M43.4,29.6c-0.2,0.6-0.5,1.2-0.7,1.7H10c-0.4-0.5-0.8-1.1-1.2-1.7
	H43.4z M11.5,33.1h29.9c-0.6,0.6-1.2,1.2-1.9,1.7H13.9C13,34.3,12.2,33.8,11.5,33.1z"/>
</svg>
