<?xml version="1.0" encoding="utf-8"?>
<!-- Generator: Adobe Illustrator 24.0.2, SVG Export Plug-In . SVG Version: 6.00 Build 0)  -->
<svg version="1.1" id="Layer_1" xmlns="http://www.w3.org/2000/svg" xmlns:xlink="http://www.w3.org/1999/xlink" x="0px" y="0px"
	 viewBox="0 0 51 53.9" style="enable-background:new 0 0 51 53.9;" xml:space="preserve">
<path d="M35.5,28.1v-3.3c1.7-1.1,2.8-3,2.8-5.1c0-3.3-2.6-5.9-5.8-5.9c-1.2,0-2.2,0.4-3.1,1c-0.7-4.1-4.2-7-8.3-7
	c-4.6,0-8.5,4.1-8.5,9c0,2.7,1.2,5.1,2.8,6.7v3.7c-3.5-2.2-5.9-6-5.9-10.4c0.1-6.8,5.2-12.2,11.5-12.2c4.3,0,8.1,2.4,10,6.1
	c0.4-0.1,0.9-0.2,1.3-0.2c4.7,0,8.5,4.1,8.5,9C41.4,23.7,38.9,27.1,35.5,28.1z M19.9,19.7c0.7,0,1.4,0.7,1.4,1.5v12.1
	c0,0.7-0.7,1.5-1.4,1.5s-1.5-0.7-1.5-1.5V21.2C18.4,20.3,19,19.7,19.9,19.7z M25.6,22.6c0.7,0,1.4,0.7,1.4,1.5v12.1
	c0,0.7-0.7,1.5-1.4,1.5c-0.7,0-1.4-0.7-1.4-1.5V24.1C24.2,23.4,24.8,22.6,25.6,22.6z M31.3,19.7c0.7,0,1.4,0.7,1.4,1.5v12.1
	c0,0.7-0.7,1.5-1.4,1.5c-0.7,0-1.4-0.7-1.4-1.5V21.2C29.9,20.3,30.6,19.7,31.3,19.7z"/>
</svg>
