<?xml version="1.0" encoding="utf-8"?>
<!-- Generator: Adobe Illustrator 22.1.0, SVG Export Plug-In . SVG Version: 6.00 Build 0)  -->
<svg version="1.1" id="Layer_1" xmlns="http://www.w3.org/2000/svg" xmlns:xlink="http://www.w3.org/1999/xlink" x="0px" y="0px"
	 viewBox="0 0 51 51" style="enable-background:new 0 0 51 51;" xml:space="preserve">
<style type="text/css">
	.st0{fill:#FFFFFF;}
</style>
<path class="st0" d="M3.8,30.4c-0.3-0.6-0.5-1.4-0.6-2.1h45.4c0,0.7-0.1,1.4-0.2,2.1H3.8z M11.1,9.5c2.4-1.4,5.1-2.1,8.1-2.1
	s5.7,0.7,8.1,2.1H11.1z M2.7,22.2c0.1-0.7,0.2-1.4,0.4-2.1h42.1c0.6,0.6,1,1.4,1.6,2.1H2.7z M3.8,17.9c0.3-0.7,0.6-1.5,1-2.1h28.9
	c0,0.1,0.1,0.1,0.1,0.2c0.7-0.1,1.4-0.2,2.1-0.2c2.6,0,4.9,0.7,6.9,2.1H3.8z M6.2,13.8c0.6-0.7,1.3-1.5,2-2.1h22.1
	c0.7,0.6,1.4,1.4,2,2.1H6.2z M48.3,26.2H2.7c-0.1-0.7-0.1-1.4-0.1-2.1h45.3C47.9,24.9,48.2,25.6,48.3,26.2z M47.7,32.4
	c-0.2,0.7-0.6,1.5-0.9,2.1H6.2c-0.5-0.6-1-1.4-1.5-2.1H47.7z M8.2,36.7h37.1c-0.7,0.8-1.5,1.5-2.4,2.1H11.1C10,38.2,9,37.6,8.2,36.7
	z"/>
</svg>
