<?xml version="1.0" encoding="utf-8"?>
<!-- Generator: Adobe Illustrator 22.1.0, SVG Export Plug-In . SVG Version: 6.00 Build 0)  -->
<svg version="1.1" id="Layer_1" xmlns="http://www.w3.org/2000/svg" xmlns:xlink="http://www.w3.org/1999/xlink" x="0px" y="0px"
	 viewBox="0 0 51 51" style="enable-background:new 0 0 51 51;" xml:space="preserve">
<style type="text/css">
	.st0{fill:#FFFFFF;}
</style>
<path class="st0" d="M45.6,25.1L45.6,25.1c1.5,2,2.2,4.5,2.2,7.2c0,6.9-5.6,12.5-12.5,12.5c-3,0-13.4,0-16.7,0
	c-9.2,0-16.8-7.6-16.8-16.7s7.6-16.7,16.7-16.7c2.1,0,4.1,0.4,6,1l0,0c1.6-4.9,6.3-8.4,11.8-8.4c0.9,0,1.6,0.1,2.4,0.2
	c-0.1,0.6-0.2,1.3-0.2,1.8c0,4.6,3.7,8.4,8.4,8.4c0.6,0,1.3-0.1,1.8-0.2c0.1,0.7,0.2,1.6,0.2,2.4C48.8,19.9,47.6,22.9,45.6,25.1z
	 M6.1,28.1c0,6.9,5.6,12.5,12.5,12.5c3.7,0,13.5,0,16.7,0c4.6,0,8.4-3.7,8.4-8.4S40,24,35.4,24c-1.6,0-3.2,0.5-4.5,1.4
	c-1.3-5.6-6.2-9.6-12.2-9.6C11.7,15.6,6.1,21.2,6.1,28.1z M26.5,13.4L26.5,13.4L26.5,13.4z M34.6,8.6c-3,0.7-5.5,3-6.2,6.1l0,0
	c2,1.5,3.6,3.3,4.9,5.5c0.7-0.1,1.4-0.2,2.1-0.2c2.7,0,5.2,0.9,7.3,2.4l0,0c1-1,1.6-2.2,1.8-3.6C39.5,17.5,35.6,13.6,34.6,8.6z"/>
</svg>
