<?xml version="1.0" encoding="utf-8"?>
<!-- Generator: Adobe Illustrator 24.0.2, SVG Export Plug-In . SVG Version: 6.00 Build 0)  -->
<svg version="1.1" id="Layer_1" xmlns="http://www.w3.org/2000/svg" xmlns:xlink="http://www.w3.org/1999/xlink" x="0px" y="0px"
	 viewBox="0 0 51 51" style="enable-background:new 0 0 51 51;" xml:space="preserve">
<path d="M40.1,23L40.1,23c1.1,1.4,1.6,3.1,1.6,5.1c0,4.9-4,8.7-8.7,8.7c-2.1,0-9.4,0-11.7,0c-6.4,0-11.8-5.3-11.8-11.7
	S14.7,13.3,21,13.3c1.5,0,2.8,0.3,4.2,0.7l0,0c1.2-3.4,4.5-5.9,8.3-5.9c0.6,0,1.2,0.1,1.7,0.2c-0.1,0.4-0.2,0.9-0.2,1.2
	c0,3.2,2.6,5.9,5.9,5.9c0.4,0,0.9-0.1,1.2-0.2c0.1,0.5,0.2,1.2,0.2,1.7C42.3,19.3,41.5,21.4,40.1,23z M12.4,25.1
	c0,4.9,4,8.7,8.7,8.7c2.6,0,9.5,0,11.7,0c3.2,0,5.9-2.6,5.9-5.9s-2.6-5.8-5.9-5.8c-1.2,0-2.2,0.4-3.1,1c-0.9-4-4.4-6.8-8.5-6.8
	C16.2,16.3,12.4,20.2,12.4,25.1z M26.6,14.7L26.6,14.7L26.6,14.7z M32.3,11.4c-2.1,0.5-3.9,2.1-4.4,4.3l0,0c1.4,1.1,2.6,2.3,3.5,3.9
	c0.5-0.1,1-0.2,1.5-0.2c1.9,0,3.6,0.6,5.1,1.7l0,0c0.7-0.7,1.2-1.6,1.2-2.6C35.8,17.6,33.1,14.9,32.3,11.4z"/>
</svg>
