<?xml version="1.0" encoding="utf-8"?>
<!-- Generator: Adobe Illustrator 22.1.0, SVG Export Plug-In . SVG Version: 6.00 Build 0)  -->
<svg version="1.1" id="Layer_1" xmlns="http://www.w3.org/2000/svg" xmlns:xlink="http://www.w3.org/1999/xlink" x="0px" y="0px"
	 viewBox="0 0 51 51" style="enable-background:new 0 0 51 51;" xml:space="preserve">
<style type="text/css">
	.st0{fill:#FFFFFF;}
</style>
<path class="st0" d="M40.4,37v-4.8c2.6-1.5,4.3-4.3,4.3-7.3c0-4.8-3.8-8.5-8.5-8.5c-1.6,0-3.3,0.5-4.6,1.4c-1.2-5.8-6.4-10-12.4-10
	C12,7.7,6.3,13.5,6.3,20.6c0,3.7,1.6,7.1,4.3,9.6v5.2c-5.2-3-8.5-8.4-8.5-14.8C1.9,11.2,9.7,3.4,19.1,3.4c6.4,0,12,3.6,14.9,8.8
	c0.8-0.1,1.4-0.2,2.2-0.2c7,0,12.9,5.7,12.9,12.9C49,30.5,45.5,35.2,40.4,37z M17,29.1c1.2,0,2.2,1,2.2,2.2s-1,2.2-2.2,2.2
	s-2.2-1-2.2-2.2S15.8,29.1,17,29.1z M17,37.8c1.2,0,2.2,1,2.2,2.2s-1,2.2-2.2,2.2s-2.2-1-2.2-2.2C14.8,38.6,15.8,37.8,17,37.8z
	 M25.5,33.4c1.2,0,2.2,1,2.2,2.2c0,1.2-1,2.2-2.2,2.2s-2.2-1-2.2-2.2C23.3,34.4,24.3,33.4,25.5,33.4z M25.5,42c1.2,0,2.2,1,2.2,2.2
	s-1,2.2-2.2,2.2s-2.2-1-2.2-2.2S24.3,42,25.5,42z M34,29.1c1.2,0,2.2,1,2.2,2.2s-1,2.2-2.2,2.2c-1.2,0-2.2-1-2.2-2.2
	S32.8,29.1,34,29.1z M34,37.8c1.2,0,2.2,1,2.2,2.2s-1,2.2-2.2,2.2c-1.2,0-2.2-1-2.2-2.2C31.9,38.6,32.8,37.8,34,37.8z"/>
</svg>
