<?xml version="1.0" encoding="utf-8"?>
<!-- Generator: Adobe Illustrator 22.1.0, SVG Export Plug-In . SVG Version: 6.00 Build 0)  -->
<svg version="1.1" id="Layer_1" xmlns="http://www.w3.org/2000/svg" xmlns:xlink="http://www.w3.org/1999/xlink" x="0px" y="0px"
	 viewBox="0 0 51 51" style="enable-background:new 0 0 51 51;" xml:space="preserve">
<style type="text/css">
	.st0{fill:#FFFFFF;}
</style>
<path class="st0" d="M38,39.2V35c3.6-0.9,6.3-4.2,6.3-8.1c0-4.6-3.8-8.3-8.4-8.3c-1.7,0-3.3,0.5-4.5,1.4c-1.3-5.5-6.3-9.7-12.3-9.7
	C12.3,10.5,6.5,16,6.5,22.9c0,4.6,2.5,8.6,6.3,10.8v4.6C6.7,35.8,2.3,29.9,2.3,22.9C2.3,13.8,9.8,6.4,19,6.4
	c6.3,0,11.8,3.5,14.6,8.5c0.7-0.1,1.4-0.2,2.1-0.2c6.8,0,12.6,5.6,12.6,12.5C48.5,33.2,44,38.3,38,39.2z M18.3,33.2
	c0.6-0.9,1.9-1.4,2.8-0.7l2.3,1.4v-2.6c0-1.2,0.9-2.1,2.1-2.1s2.1,0.9,2.1,2.1v2.6l2.3-1.4c1.1-0.6,2.3-0.2,2.8,0.7
	c0.6,0.9,0.2,2.2-0.7,2.8l-2.2,1.4l2.2,1.4c1.1,0.6,1.4,1.9,0.7,2.8c-0.6,0.9-1.9,1.4-2.8,0.7l-2.3-1.3v2.6c0,1.2-0.9,2.1-2.1,2.1
	s-2.1-0.9-2.1-2.1v-2.6l-2.3,1.4c-1.1,0.6-2.3,0.2-2.8-0.7c-0.6-0.9-0.2-2.2,0.7-2.8l2.3-1.4L19,36.2C18.1,35.4,17.6,34.2,18.3,33.2
	z M25.5,39.4c1.2,0,2.1-0.9,2.1-2.1s-0.9-2.1-2.1-2.1s-2.1,0.9-2.1,2.1S24.4,39.4,25.5,39.4z"/>
</svg>
