<?xml version="1.0" encoding="utf-8"?>
<!-- Generator: Adobe Illustrator 24.0.2, SVG Export Plug-In . SVG Version: 6.00 Build 0)  -->
<svg version="1.1" id="Layer_1" xmlns="http://www.w3.org/2000/svg" xmlns:xlink="http://www.w3.org/1999/xlink" x="0px" y="0px"
	 viewBox="0 0 51 51" style="enable-background:new 0 0 51 51;" xml:space="preserve">
<path d="M36,26v-3.4c1.8-1.1,3-3,3-5.1c0-3.4-2.7-6-6-6c-1.2,0-2.3,0.4-3.2,1c-0.8-4-4.5-7-8.7-7c-5-0.1-9.1,4-9.1,9
	c0,2.6,1.2,5,3,6.8v3.7c-3.6-2.1-5.9-5.9-5.9-10.4c-0.2-6.6,5.4-12,12-12c4.5,0,8.4,2.5,10.4,6.2c0.5-0.1,1-0.2,1.5-0.2
	c4.9,0,9.1,4,9.1,9.1C42,21.4,39.6,24.7,36,26z M19.5,20.4c0.8,0,1.5,0.7,1.5,1.5s-0.7,1.5-1.5,1.5c-0.8,0-1.5-0.7-1.5-1.5
	C18,21.1,18.7,20.4,19.5,20.4z M19.5,26.6c0.8,0,1.5,0.7,1.5,1.5c0,0.8-0.7,1.5-1.5,1.5c-0.8,0-1.5-0.7-1.5-1.5
	C18,27.1,18.7,26.6,19.5,26.6z M25.5,23.4c0.8,0,1.5,0.7,1.5,1.5s-0.7,1.5-1.5,1.5c-0.8,0-1.5-0.7-1.5-1.5S24.7,23.4,25.5,23.4z
	 M25.5,29.5c0.8,0,1.5,0.7,1.5,1.5s-0.7,1.5-1.5,1.5c-0.8,0-1.5-0.7-1.5-1.5C24,30.2,24.7,29.5,25.5,29.5z M31.5,20.4
	c0.8,0,1.5,0.7,1.5,1.5s-0.7,1.5-1.5,1.5c-0.8,0-1.5-0.7-1.5-1.5S30.7,20.4,31.5,20.4z M31.5,26.6c0.8,0,1.5,0.7,1.5,1.5
	c0,0.8-0.7,1.5-1.5,1.5c-0.8,0-1.5-0.7-1.5-1.5C30.1,27.1,30.7,26.6,31.5,26.6z"/>
</svg>
