<?xml version="1.0" encoding="utf-8"?>
<!-- Generator: Adobe Illustrator 22.1.0, SVG Export Plug-In . SVG Version: 6.00 Build 0)  -->
<svg version="1.1" id="Layer_1" xmlns="http://www.w3.org/2000/svg" xmlns:xlink="http://www.w3.org/1999/xlink" x="0px" y="0px"
	 viewBox="0 0 51 51" style="enable-background:new 0 0 51 51;" xml:space="preserve">
<style type="text/css">
	.st0{fill:#FFFFFF;}
</style>
<path class="st0" d="M19.2,40.4c-9.2,0-16.7-7.5-16.7-16.7S10,7.1,19.2,7.1c6.3,0,11.8,3.5,14.6,8.6c0.7-0.1,1.4-0.2,2.1-0.2
	c6.8,0,12.6,5.6,12.6,12.6s-5.7,12.6-12.6,12.6C33.2,40.4,22.6,40.4,19.2,40.4z M36,36.3c4.6,0,8.4-3.8,8.4-8.3s-3.8-8.3-8.4-8.3
	c-1.7,0-3.3,0.5-4.5,1.4c-1.3-5.5-6.3-9.7-12.3-9.7C12.4,11.4,6.6,17,6.6,24s5.7,12.6,12.6,12.6C23.1,36.3,32.9,36.3,36,36.3z"/>
</svg>
