<?xml version="1.0" encoding="utf-8"?>
<!-- Generator: Adobe Illustrator 22.1.0, SVG Export Plug-In . SVG Version: 6.00 Build 0)  -->
<svg version="1.1" id="Layer_1" xmlns="http://www.w3.org/2000/svg" xmlns:xlink="http://www.w3.org/1999/xlink" x="0px" y="0px"
	 viewBox="0 0 51 53.9" style="enable-background:new 0 0 51 53.9;" xml:space="preserve">
<style type="text/css">
	.st0{fill:#FFFFFF;}
</style>
<path class="st0" d="M40.7,37.3v-4.9c2.6-1.6,4.3-4.5,4.3-7.7c0-4.9-3.8-8.9-8.6-8.9c-1.7,0-3.3,0.5-4.6,1.5
	c-1.3-6-6.4-10.4-12.5-10.4c-7,0-12.8,6.1-12.8,13.4c0,3.9,1.7,7.5,4.3,10v5.5C5.5,32.6,2.1,27,2.1,20.4c0-9.9,7.7-18,17.1-18
	c6.4,0,12,3.6,15,9.1c0.7-0.1,1.4-0.2,2.1-0.2c7,0,12.8,6.1,12.8,13.4C49.3,30.6,45.7,35.6,40.7,37.3z M17.2,24.7
	c1.2,0,2.1,1,2.1,2.2v18c0,1.2-1,2.2-2.1,2.2s-2.2-1-2.2-2.2v-18C15,25.7,16,24.7,17.2,24.7z M25.7,29.1c1.2,0,2.1,1,2.1,2.2v18
	c0,1.2-1,2.2-2.1,2.2s-2.1-1-2.1-2.2v-18C23.6,30.2,24.6,29.1,25.7,29.1z M34.3,24.7c1.2,0,2.1,1,2.1,2.2v18c0,1.2-1,2.2-2.1,2.2
	s-2.1-1-2.1-2.2v-18C32.2,25.7,33.1,24.7,34.3,24.7z"/>
</svg>
