<?xml version="1.0" encoding="utf-8"?>
<!-- Generator: Adobe Illustrator 24.0.2, SVG Export Plug-In . SVG Version: 6.00 Build 0)  -->
<svg version="1.1" id="Layer_1" xmlns="http://www.w3.org/2000/svg" xmlns:xlink="http://www.w3.org/1999/xlink" x="0px" y="0px"
	 viewBox="0 0 51 51" style="enable-background:new 0 0 51 51;" xml:space="preserve">
<path d="M21.1,36.4c-6.4,0-11.6-5.2-11.6-11.6s5.2-11.5,11.6-11.5c4.4,0,8.2,2.5,10.1,6c0.5-0.1,1-0.1,1.5-0.1
	c4.8,0.1,8.8,3.9,8.8,8.8s-3.9,8.8-8.8,8.8C30.9,36.4,23.5,36.4,21.1,36.4z M32.8,33.5c3.2,0,5.9-2.7,5.9-5.8s-2.7-5.8-5.9-5.8
	c-1.2,0-2.3,0.4-3.1,1c-0.9-3.8-4.4-6.8-8.6-6.8c-4.8,0-8.8,3.9-8.8,8.8s3.9,8.8,8.8,8.8C23.9,33.5,30.6,33.5,32.8,33.5z"/>
</svg>
