<?xml version="1.0" encoding="utf-8"?>
<!-- Generator: Adobe Illustrator 22.1.0, SVG Export Plug-In . SVG Version: 6.00 Build 0)  -->
<svg version="1.1" id="Layer_1" xmlns="http://www.w3.org/2000/svg" xmlns:xlink="http://www.w3.org/1999/xlink" x="0px" y="0px"
	 viewBox="0 0 51 51" style="enable-background:new 0 0 51 51;" xml:space="preserve">
<style type="text/css">
	.st0{fill:#FFFFFF;}
</style>
<path class="st0" d="M25.5,40C17,40,10,33,10,24.5S17,9,25.5,9c1,0,1.9,0.1,2.8,0.3c-0.1,0.8-0.3,1.6-0.3,2.3
	c0,5.7,4.6,10.3,10.3,10.3c0.8,0,1.5-0.1,2.3-0.3c0.1,0.9,0.3,1.9,0.3,2.8C41,33,34,40,25.5,40z M23.2,14.4c-4.5,1-8,5.2-8,10.1
	c0,5.7,4.7,10.3,10.3,10.3c4.9,0,9-3.5,10.1-8C29.2,25.7,24.3,20.8,23.2,14.4z"/>
</svg>
