<?xml version="1.0" encoding="utf-8"?>
<!-- Generator: Adobe Illustrator 25.4.1, SVG Export Plug-In . SVG Version: 6.00 Build 0)  -->
<svg version="1.1" id="Layer_1" xmlns="http://www.w3.org/2000/svg" xmlns:xlink="http://www.w3.org/1999/xlink" x="0px" y="0px"
	 viewBox="0 0 51 51" style="enable-background:new 0 0 51 51;" xml:space="preserve">
<path d="M25.5,38C18.6,38,13,32.4,13,25.3s5.6-12.6,12.6-12.6c0.9,0,1.6,0.1,2.2,0.3c-0.1,0.6-0.3,1.3-0.3,1.9
	c0,4.8,3.8,8.4,8.4,8.4c0.6,0,1.3-0.1,1.9-0.3c0.1,0.7,0.3,1.6,0.3,2.2C38.1,32.4,32.5,38,25.5,38z M23.6,17.2
	c-3.6,0.9-6.5,4.2-6.5,8.2c0,4.8,3.9,8.4,8.4,8.4c4,0,7.4-2.9,8.2-6.5C28.4,26.4,24.5,22.4,23.6,17.2z"/>
</svg>
