<?xml version="1.0" encoding="utf-8"?>
<!-- Generator: Adobe Illustrator 24.0.2, SVG Export Plug-In . SVG Version: 6.00 Build 0)  -->
<svg version="1.1" id="Layer_1" xmlns="http://www.w3.org/2000/svg" xmlns:xlink="http://www.w3.org/1999/xlink" x="0px" y="0px"
	 viewBox="0 0 51 51" style="enable-background:new 0 0 51 51;" xml:space="preserve">
<path d="M25.5,34.1c-4.8,0-8.7-3.9-8.7-8.8s3.9-8.7,8.7-8.7c0.6,0,1.1,0.1,1.5,0.2c-0.1,0.4-0.2,0.9-0.2,1.3c0,3.3,2.6,5.8,5.8,5.8
	c0.4,0,0.9-0.1,1.3-0.2c0.1,0.5,0.2,1.1,0.2,1.5C34.2,30.2,30.3,34.1,25.5,34.1z M24.2,19.7c-2.5,0.6-4.5,2.9-4.5,5.7
	c0,3.3,2.7,5.8,5.8,5.8c2.8,0,5.1-2,5.7-4.5C27.5,26.1,24.8,23.3,24.2,19.7z"/>
</svg>
