<?xml version="1.0" encoding="utf-8"?>
<!-- Generator: Adobe Illustrator 24.0.2, SVG Export Plug-In . SVG Version: 6.00 Build 0)  -->
<svg version="1.1" id="Layer_1" xmlns="http://www.w3.org/2000/svg" xmlns:xlink="http://www.w3.org/1999/xlink" x="0px" y="0px"
	 viewBox="0 0 51 51" style="enable-background:new 0 0 51 51;" xml:space="preserve">
<path d="M40.4,23.2h-2.6c-0.8,0-1.5-0.8-1.5-1.5c0-0.7,0.8-1.5,1.5-1.5h2.6c0.8,0,1.5,0.8,1.5,1.5C41.8,22.4,41.3,23.2,40.4,23.2z
	 M35.1,14.1c-0.6,0.6-1.5,0.6-1.9,0c-0.6-0.6-0.6-1.5,0-1.9l1.9-2c0.6-0.6,1.5-0.6,1.9,0c0.7,0.4,0.7,1.2,0.1,1.8L35.1,14.1z
	 M25.4,30.1c-4.5,0-8.2-3.8-8.2-8.2s3.8-8.2,8.2-8.2s8.2,3.8,8.2,8.1S29.8,30.1,25.4,30.1z M25.4,16.4c-3,0-5.5,2.4-5.5,5.5
	s2.4,5.5,5.5,5.5s5.5-2.4,5.5-5.5S28.3,16.4,25.4,16.4z M25.4,10.9c-0.8,0-1.5-0.8-1.5-1.5V6.9c0-0.8,0.8-1.5,1.5-1.5
	s1.5,0.8,1.5,1.5v2.6C26.9,10.2,26.2,10.9,25.4,10.9z M15.7,14.1l-2-1.8c-0.6-0.6-0.6-1.5,0-1.9c0.6-0.6,1.5-0.6,1.9,0l2,1.9
	c0.6,0.6,0.6,1.5,0,1.9C17,14.7,16.2,14.7,15.7,14.1z M14.5,21.9c0,0.8-0.8,1.5-1.5,1.5h-2.7c-0.8,0-1.5-0.8-1.5-1.5
	c0-0.8,0.7-1.5,1.5-1.5h2.6C13.7,20.6,14.5,21.2,14.5,21.9z M15.7,29.6c0.6-0.6,1.5-0.6,1.9,0c0.6,0.6,0.6,1.5,0,1.9l-1.9,2
	c-0.6,0.6-1.5,0.6-1.9,0c-0.7-0.6-0.6-1.5,0-1.9L15.7,29.6z M25.4,32.8c0.8,0,1.5,0.8,1.5,1.5v2.6c0,0.8-0.8,1.5-1.5,1.5
	s-1.5-0.8-1.5-1.5v-2.6C23.9,33.5,24.5,32.8,25.4,32.8z M35.1,29.6l1.9,1.9c0.6,0.6,0.6,1.5,0,1.9c-0.6,0.6-1.5,0.6-1.9,0l-1.9-1.8
	c-0.6-0.6-0.6-1.5,0-1.9C33.6,28.9,34.5,28.9,35.1,29.6z"/>
</svg>
