<?xml version="1.0" encoding="utf-8"?>
<!-- Generator: Adobe Illustrator 22.1.0, SVG Export Plug-In . SVG Version: 6.00 Build 0)  -->
<svg version="1.1" id="Layer_1" xmlns="http://www.w3.org/2000/svg" xmlns:xlink="http://www.w3.org/1999/xlink" x="0px" y="0px"
	 viewBox="0 0 51 51" style="enable-background:new 0 0 51 51;" xml:space="preserve">
<style type="text/css">
	.st0{fill:#FFFFFF;}
</style>
<path class="st0" d="M47.8,27h-4c-1.1,0-2.1-1-2.1-2.1c0-1,1-2.1,2.1-2.1h4c1.1,0,2.1,1,2.1,2.1C49.8,26,49.1,27,47.8,27z
	 M39.8,13.5c-0.8,0.8-2.1,0.8-3,0c-0.8-0.8-0.8-2.1,0-3l3-3c0.8-0.8,2.1-0.8,3,0c0.8,0.8,0.8,2.1,0,3L39.8,13.5z M25.4,37.4
	c-6.7,0-12.2-5.6-12.2-12.2S18.8,13,25.4,13s12.2,5.6,12.2,12.2S32.1,37.4,25.4,37.4z M25.4,16.9c-4.6,0-8.2,3.8-8.2,8.2
	s3.8,8.2,8.2,8.2s8.2-3.8,8.2-8.2S29.7,16.9,25.4,16.9z M25.4,8.8c-1.1,0-2.1-1-2.1-2.1V2.6c0-1.1,1-2.1,2.1-2.1c1,0,2.1,1,2.1,2.1
	v4C27.5,7.7,26.4,8.8,25.4,8.8z M11,13.5l-3.1-3c-0.8-0.8-0.8-2.1,0-3s2.1-0.8,3,0l3,3c0.8,0.8,0.8,2.1,0,3
	C13,14.4,11.6,14.4,11,13.5z M9.1,25C9.1,26.1,8,27,7,27H2.9c-1.1,0-2.1-1-2.1-2.1c0-1,1-2.1,2.1-2.1h4C8,23.2,9.1,24,9.1,25z
	 M11,36.6c0.8-0.8,2.1-0.8,3,0c0.8,0.8,0.8,2.1,0,3l-3,3.1c-0.8,0.8-2.1,0.8-3,0c-0.9-0.8-0.8-2.1,0-3L11,36.6z M25.4,41.4
	c1.1,0,2.1,1,2.1,2.1v4c0,1.1-1,2.1-2.1,2.1c-1,0-2.1-1-2.1-2.1v-4C23.4,42.4,24.3,41.4,25.4,41.4z M39.8,36.6l3,3
	c0.8,0.8,0.8,2.1,0,3c-0.8,0.8-2.1,0.8-3,0l-3-3c-0.8-0.8-0.8-2.1,0-3C37.6,35.7,39.1,35.7,39.8,36.6z"/>
</svg>
