<?xml version="1.0" encoding="utf-8"?>
<!-- Generator: Adobe Illustrator 22.1.0, SVG Export Plug-In . SVG Version: 6.00 Build 0)  -->
<svg version="1.1" id="Layer_1" xmlns="http://www.w3.org/2000/svg" xmlns:xlink="http://www.w3.org/1999/xlink" x="0px" y="0px"
	 viewBox="0 0 51 51" style="enable-background:new 0 0 51 51;" xml:space="preserve">
<style type="text/css">
	.st0{fill:#FFFFFF;}
</style>
<path class="st0" d="M42.6,27.6L42.6,27.6h-3.2c-1.2,0-2.1-1-2.1-2.1c0-1.2,1-2.1,2.1-2.1h3.2c1.2,0,2.1-1,2.1-2.1
	c0-1.2-1-2.1-2.1-2.1c-1.2,0-2.1-1-2.1-2.1s1-2.1,2.1-2.1c0.1,0,0.3,0,0.4,0c3.3,0.2,6,3,6,6.4C49,24.7,46.2,27.6,42.6,27.6z
	 M31.9,23.4h-2.1h-7.6H8.4c-1.2,0-2.1,1-2.1,2.1c0,1.2,1,2.1,2.1,2.1h2.1h4.3h3.2h4.3h3.2h4.3H32c3.5,0,6.4,2.9,6.4,6.4
	c0,3.4-2.7,6.1-6,6.4c-0.1,0-0.3,0-0.4,0c-1.2,0-2.1-1-2.1-2.1c0-1.2,1-2.1,2.1-2.1c1.2,0,2.1-1,2.1-2.1s-1-2.1-2.1-2.1h-2.1h-4.3
	h-3.2h-4.3h-3.2h-4.3H8.4C4.9,31.9,2,29,2,25.5c0-3.4,2.7-6.1,6-6.4c0.1,0,0.3,0,0.4,0l0,0h13.8h7.5h2.1c1.2,0,2.1-1,2.1-2.1
	s-1-2.1-2.1-2.1s-2.1-1-2.1-2.1s1-2.1,2.1-2.1c0.1,0,0.3,0,0.4,0c3.3,0.2,6,3,6,6.4C38.4,20.6,35.5,23.4,31.9,23.4z"/>
</svg>
