<?xml version="1.0" encoding="utf-8"?>
<!-- Generator: Adobe Illustrator 24.0.2, SVG Export Plug-In . SVG Version: 6.00 Build 0)  -->
<svg version="1.1" id="Layer_1" xmlns="http://www.w3.org/2000/svg" xmlns:xlink="http://www.w3.org/1999/xlink" x="0px" y="0px"
	 viewBox="0 0 51 51" style="enable-background:new 0 0 51 51;" xml:space="preserve">
<path d="M37,27.1L37,27.1h-2.2c-0.8,0-1.4-0.7-1.4-1.4c0-0.8,0.7-1.4,1.4-1.4H37c0.8,0,1.4-0.7,1.4-1.4c0-0.8-0.7-1.4-1.4-1.4
	c-0.8,0-1.4-0.7-1.4-1.4c0-0.7,0.7-1.4,1.4-1.4c0.1,0,0.2,0,0.3,0c2.2,0.1,4.1,2,4.1,4.4C41.4,25.1,39.4,27.1,37,27.1z M29.8,24.2
	h-1.4h-5.2h-9.4c-0.8,0-1.4,0.7-1.4,1.4c0,0.8,0.7,1.4,1.4,1.4h1.4h2.9h2.2h2.9h2.2h2.9h1.5c2.4,0,4.4,2,4.4,4.4
	c0,2.3-1.9,4.2-4.1,4.4c-0.1,0-0.2,0-0.3,0c-0.8,0-1.4-0.7-1.4-1.4c0-0.8,0.7-1.4,1.4-1.4c0.8,0,1.4-0.7,1.4-1.4
	c0-0.7-0.7-1.4-1.4-1.4h-1.4h-2.9h-2.2h-2.9h-2.2h-2.9h-1.5C11.4,30,9.4,28,9.4,25.6c0-2.3,1.9-4.2,4.1-4.4c0.1,0,0.2,0,0.3,0l0,0
	h9.4h5.1h1.4c0.8,0,1.4-0.7,1.4-1.4s-0.7-1.4-1.4-1.4c-0.7,0-1.4-0.7-1.4-1.4s0.7-1.4,1.4-1.4c0.1,0,0.2,0,0.3,0
	c2.2,0.1,4.1,2,4.1,4.4C34.1,22.3,32.1,24.2,29.8,24.2z"/>
</svg>
