<?xml version="1.0" encoding="utf-8"?>
<!-- Generator: Adobe Illustrator 23.0.6, SVG Export Plug-In . SVG Version: 6.00 Build 0)  -->
<svg version="1.1" id="Capa_1" xmlns="http://www.w3.org/2000/svg" xmlns:xlink="http://www.w3.org/1999/xlink" x="0px" y="0px"
	 viewBox="0 0 512 512" style="enable-background:new 0 0 512 512;" xml:space="preserve">
<style type="text/css">
	.st0{opacity:0.5;fill:#F9F9F9;}
</style>
<path class="st0" d="M503.5,238.9h-25.6c-0.5,0-1,0.2-1.5,0.3c-7.7-43.8-45.3-77.1-91.7-77.1c-45.6,0-83.6,32.1-92.5,74.8
	c-11.4-9.9-23.3-15-35.4-15.1c-0.1,0-0.2,0-0.3,0c-12.3,0-24.5,5.2-36.3,15.2c-8.6-42.8-45.7-75-91.4-75
	c-49.3,0-89.7,37.5-94.1,85.4c-0.1,0-0.3-0.1-0.4-0.1H8.5c-4.7,0-8.5,3.8-8.5,8.5c0,4.7,3.8,8.5,8.5,8.5h25.6c0.2,0,0.3-0.1,0.4-0.1
	c4.3,47.9,44.7,85.4,94.1,85.4c51,0,91.3-40.2,93.1-90.4c11.9-13.6,23.5-20.5,34.6-20.5c0.1,0,0.1,0,0.2,0c11,0.1,22.4,7,33.8,20.4
	c1.8,50.3,43.3,90.5,94.3,90.5c52.2,0,93.3-42,93.3-93.9h25.6c4.7,0,8.5-3.8,8.5-8.5S508.2,238.9,503.5,238.9z"/>
</svg>
