<?xml version="1.0" encoding="utf-8"?>
<!-- Generator: Adobe Illustrator 23.0.6, SVG Export Plug-In . SVG Version: 6.00 Build 0)  -->
<svg version="1.1" id="Capa_1" xmlns="http://www.w3.org/2000/svg" xmlns:xlink="http://www.w3.org/1999/xlink" x="0px" y="0px"
	 viewBox="0 0 512 512" style="enable-background:new 0 0 512 512;" xml:space="preserve">
<style type="text/css">
	.st0{fill:#F9F9F9;}
</style>
<g>
	<g id="Capa_1_1_">
		<path class="st0" d="M322.3,119.9H195.7C138.8,166.2,99,273.1,99,397.6c0,25.7,1.7,50.6,4.8,74.4c3,22.6,29,39.9,59.8,39.8h190.5
			c30.8,0,56.6-17.2,59.8-39.8c3.2-23.8,5-48.7,5-74.4C419,273.2,379.2,166.2,322.3,119.9z M143.4,286.6c2.8-3.6,9.1-4.9,14-2.8l0,0
			l26.7,11.4c2.3,1,4,2.6,4.7,4.6c0.7,1.9,0.4,4-1,5.7c-2.8,3.6-9.1,4.9-14,2.8c0,0,0,0-0.1,0l-26.5-11.4
			C142.1,294.9,140.5,290.2,143.4,286.6C143.2,286.6,143.2,286.6,143.4,286.6L143.4,286.6z M184,376.4l-26.7,11.3
			c-5,2.1-11.2,0.8-14.1-2.8c-2.8-3.6-1.1-8.2,3.9-10.3l26.7-11.3c4.8-2.2,11.2-1.1,14.2,2.5c2.9,3.6,1.4,8.2-3.5,10.4
			C184.4,376.2,184.3,376.3,184,376.4L184,376.4z M248.8,245c0-4.2,4.6-7.6,10.2-7.6c5.7,0,10.2,3.4,10.2,7.6v22.7
			c0,4.2-4.6,7.6-10.2,7.6c-5.7,0-10.2-3.4-10.2-7.6V245z M269.4,426.5c0,4.2-4.6,7.6-10.2,7.6s-10.2-3.4-10.2-7.6l0,0v-22.7
			c0-4.2,4.6-7.6,10.2-7.6s10.2,3.4,10.2,7.6l0,0V426.5z M259,373.6c-28.5,0-51.4-17-51.4-37.8c0-20.9,23.1-37.8,51.5-37.8
			c28.3,0,51.4,16.9,51.4,37.8C310.5,356.7,287.5,373.6,259,373.6L259,373.6L259,373.6z M374.8,385c-2.9,3.6-9.1,4.8-14.1,2.8
			L334,376.5c-5-2.1-6.6-6.7-3.7-10.3c2.8-3.6,9.1-4.9,14.1-2.8l0,0l26.8,11.3C375.9,376.7,377.5,381.3,374.8,385L374.8,385z
			 M371.1,297l-26.8,11.3c-3.2,1.4-7,1.4-10.2,0c-4.8-2.1-6.6-6.6-3.9-10.2c1-1.2,2.2-2.1,3.9-2.8l26.7-11.4
			c4.8-2.2,11.2-1.1,14.2,2.5c2.9,3.6,1.4,8.2-3.5,10.4C371.3,296.8,371.2,296.9,371.1,297L371.1,297z"/>
		<path class="st0" d="M312.6,22.6v2.2H205.3v-2.2c0-12.1,13.3-21.9,29.8-22h47.7C299.2,0.7,312.6,10.5,312.6,22.6L312.6,22.6z"/>
		<path class="st0" d="M312.6,34.6V99c0,3.6-2.5,7-6.6,9h-94.1c-4.1-2-6.5-5.4-6.6-9V34.6H312.6z"/>
	</g>
</g>
</svg>
