<?xml version="1.0" encoding="utf-8"?>
<!-- Generator: Adobe Illustrator 23.0.6, SVG Export Plug-In . SVG Version: 6.00 Build 0)  -->
<svg version="1.1" id="Capa_1" xmlns="http://www.w3.org/2000/svg" xmlns:xlink="http://www.w3.org/1999/xlink" x="0px" y="0px"
	 viewBox="0 0 512 512" style="enable-background:new 0 0 512 512;" xml:space="preserve">
<style type="text/css">
	.st0{opacity:0.5;}
	.st1{fill:#F9F9F9;}
</style>
<g class="st0">
	<g>
		<path class="st1" d="M336.2,375.2c-98.5,0-183.9-16.5-237.4-46.9c-18.4,8.9-76.4,37.8-91.7,56.2c-3.2,3.8-6.8,13.4-7.1,18.3
			c-0.2,3.8,4.2,14.6,4.2,14.6c130.2,55,203,34.1,275.8,19.7c77.4-15.2,147.7-64.8,147.7-64.8c0.6-0.6,1.3-1.3,1.9-1.9
			C397.6,373.6,366.3,375.2,336.2,375.2z"/>
		<path class="st1" d="M338.3,80.7l-1.1,0c-0.9-12.2-15.7-22-34-22c-18.9,0-34.2,10.4-34.2,23.2c0,0.2,0.1,0.4,0.1,0.6
			c-173,18-166,139.1-162.4,204.5c0.6,11.5-0.2,22.7-1,30.1c70.6,40.2,200.9,54.9,343,37.9c26.3-18.1,62.3-35.6,62.3-35.6
			s2.2-67.2,0-89.4C499.3,113.2,399.4,86.3,338.3,80.7z"/>
	</g>
</g>
</svg>
