<?xml version="1.0" encoding="utf-8"?>
<!-- Generator: Adobe Illustrator 23.0.6, SVG Export Plug-In . SVG Version: 6.00 Build 0)  -->
<svg version="1.1" id="Capa_1" xmlns="http://www.w3.org/2000/svg" xmlns:xlink="http://www.w3.org/1999/xlink" x="0px" y="0px"
	 viewBox="0 0 512 512" style="enable-background:new 0 0 512 512;" xml:space="preserve">
<style type="text/css">
	.st0{opacity:0.5;}
	.st1{fill:#F9F9F9;}
</style>
<g class="st0">
	<path class="st1" d="M190.4,189.9c-4.9,0-9.7-1-14.3-3c-11-4.9-18.7-14.9-20.5-26.8l-13.9-89.8c-8.2-0.4-16.5,0.8-24.4,3.6
		c0,0,0,0,0,0C97.7,81,83,97.8,78.7,118.3l-78.4,370c-0.6,2.9,0,5.8,1.5,8.3c1.6,2.4,4.1,4.1,7,4.7l49,10.1
		c5.8,1.2,11.4-2.4,12.8-8.1l61.6-249.4L131.2,484c0,2.9,1.1,5.7,3.2,7.8c2.1,2.1,4.8,3.2,7.8,3.2h100.9V162.2l-33.3,21.9
		C204,187.9,197.3,189.9,190.4,189.9z"/>
	<path class="st1" d="M511.8,488.3l-78.4-370c-4.3-20.5-19-37.3-38.7-44.4l0,0c-7.9-2.8-16.2-4-24.4-3.6l-13.8,89.8
		c-1.8,11.9-9.5,21.9-20.5,26.8c-4.5,2-9.3,3-14.3,3c-6.9,0-13.6-2-19.4-5.8l-33.3-21.9V495H370c2.9,0,5.7-1.2,7.8-3.2
		c2.1-2.1,3.2-4.9,3.2-7.8l-1-229.9l61.5,249.2c1.4,5.7,7.1,9.3,12.8,8.1l49-10.1c2.9-0.6,5.4-2.3,7-4.7
		C511.8,494.1,512.4,491.2,511.8,488.3z"/>
	<path class="st1" d="M321.6,164.1c1.3,0,2.6-0.3,3.8-0.8c2.9-1.3,5-4,5.5-7.1l15-97.1c3.7-24.3-11.6-47.6-35.4-53.6
		c-1-0.3-2-0.5-3-0.7C292.7,2,275,0.4,256,0.4c-19,0-36.7,1.6-51.5,4.4c-1.3,0.2-2.6,0.6-3.9,0.9c-23.4,6.5-38.1,29.5-34.4,53.5
		l15,97c0.5,3.2,2.5,5.9,5.5,7.1c1.2,0.5,2.5,0.8,3.8,0.8c1.8,0,3.6-0.5,5.2-1.5l60.4-39.8l60.4,39.8
		C318,163.6,319.8,164.1,321.6,164.1z M299.2,67L256,117.4L212.7,67c-1.3-1.5-1.7-3.7-0.9-5.6c0.7-1.9,2.5-3.2,4.5-3.4
		c9.6-1.1,20.5-1.8,32.2-2c2.5,0,5-0.1,7.5-0.1c2.5,0,5,0,7.5,0.1c11.7,0.2,22.6,0.9,32.2,2c2,0.2,3.7,1.5,4.5,3.4
		C300.9,63.3,300.6,65.4,299.2,67z"/>
</g>
</svg>
