<?xml version="1.0" encoding="utf-8"?>
<!-- Generator: Adobe Illustrator 23.0.6, SVG Export Plug-In . SVG Version: 6.00 Build 0)  -->
<svg version="1.1" id="Capa_1" xmlns="http://www.w3.org/2000/svg" xmlns:xlink="http://www.w3.org/1999/xlink" x="0px" y="0px"
	 viewBox="0 0 512 512" style="enable-background:new 0 0 512 512;" xml:space="preserve">
<style type="text/css">
	.st0{opacity:0.5;}
	.st1{fill:#F9F9F9;}
</style>
<g class="st0">
	<g>
		<g>
			<path class="st1" d="M367,58.1L117.1,459.4l0,0c-0.6,1.2-1.4,2.2-2.1,3.3l0,0c-11.5,18.5-37.4,23.2-57.7,10.5l0,0
				c-20.4-12.7-27.5-38-15.9-56.4l0,0c0.7-1.1,1.6-2,2.4-3l0,0L26.5,403c-0.8,1-1.5,2-2.2,3.1l0,0c-16.9,27-6.4,64,23.3,82.6l0,0
				c29.8,18.6,67.6,11.7,84.5-15.4l0,0c0.4-0.6,0.8-1.3,1.1-2l0,0l0,0L384.4,68.8l26.7-50.3l-8.6-5.6L367,58.1z"/>
			<path class="st1" d="M0,118.9c23.2-10.5,51-9.6,74.2,4.9l0,0c29.1,18.2,42.2,52.1,35.2,83.8l0,0c25.4-20.2,61.7-23.3,90.7-5.2
				l0,0c29.1,18.2,42.2,52.1,35.2,83.8l0,0c25.4-20.2,61.7-23.4,90.7-5.2l0,0c29.1,18.2,42.2,52.1,35.2,83.8l0,0
				c25.4-20.2,61.7-23.3,90.7-5.2l0,0c24.2,15,37.2,41,37,67.5c55.2-130.3,9.1-285-114.8-362.4l0,0
				c-48.2-30.1-101.8-44.4-154.7-44.4C137.3,20.3,56.6,55,0,118.9z"/>
		</g>
	</g>
</g>
</svg>
