<?xml version="1.0" encoding="utf-8"?>
<!-- Generator: Adobe Illustrator 23.0.6, SVG Export Plug-In . SVG Version: 6.00 Build 0)  -->
<svg version="1.1" id="Capa_1" xmlns="http://www.w3.org/2000/svg" xmlns:xlink="http://www.w3.org/1999/xlink" x="0px" y="0px"
	 viewBox="0 0 512 512" style="enable-background:new 0 0 512 512;" xml:space="preserve">
<style type="text/css">
	.st0{opacity:0.75;}
	.st1{fill:#1B2934;}
</style>
<g class="st0">
	<g>
		<g>
			<g>
				<path class="st1" d="M69.5,167h-1.3c-16.8,0-30.5,13.8-30.5,30.5v132.9c0,16.8,13.7,30.5,30.5,30.5h1.3
					c16.8,0,30.5-13.8,30.5-30.5V197.5C100,180.7,86.3,167,69.5,167z"/>
				<path class="st1" d="M114.6,381.6c0,15.4,12.6,28,28.1,28h30v71.8c0,16.9,13.8,30.6,30.5,30.6h1.3c16.8,0,30.6-13.7,30.6-30.6
					v-71.8h41.9v71.8c0,16.9,13.8,30.6,30.6,30.6h1.3c16.8,0,30.5-13.7,30.5-30.6v-71.8h30c15.4,0,28-12.6,28-28V171.8H114.6V381.6z
					"/>
				<path class="st1" d="M326.4,44.6l23.8-36.8c1.5-2.3,0.9-5.5-1.5-7c-2.3-1.5-5.5-0.9-7,1.5l-24.7,38c-18.5-7.6-39.2-11.8-61-11.8
					c-21.9,0-42.5,4.3-61.1,11.8l-24.6-38c-1.5-2.4-4.7-3-7-1.5c-2.3,1.5-3,4.7-1.5,7l23.8,36.8c-43,21.1-71.9,60.7-71.9,106.3
					c0,2.8,0.2,5.6,0.4,8.3h283.9c0.2-2.7,0.4-5.5,0.4-8.3C398.3,105.3,369.4,65.6,326.4,44.6z M190.2,110.4
					c-7.5,0-13.7-6.1-13.7-13.6s6.1-13.6,13.7-13.6c7.6,0,13.7,6.1,13.7,13.6S197.7,110.4,190.2,110.4z M321.8,110.4
					c-7.5,0-13.7-6.1-13.7-13.6s6.1-13.6,13.7-13.6c7.6,0,13.6,6.1,13.6,13.6C335.4,104.3,329.4,110.4,321.8,110.4z"/>
				<path class="st1" d="M443.8,167h-1.3c-16.8,0-30.6,13.8-30.6,30.5v132.9c0,16.8,13.8,30.5,30.6,30.5h1.3
					c16.8,0,30.5-13.8,30.5-30.5V197.5C474.4,180.7,460.6,167,443.8,167z"/>
			</g>
		</g>
	</g>
</g>
</svg>
