<?xml version="1.0" encoding="utf-8"?>
<!-- Generator: Adobe Illustrator 24.1.3, SVG Export Plug-In . SVG Version: 6.00 Build 0)  -->
<svg version="1.1" id="Capa_1" xmlns="http://www.w3.org/2000/svg" xmlns:xlink="http://www.w3.org/1999/xlink" x="0px" y="0px"
	 viewBox="0 0 512 512" style="enable-background:new 0 0 512 512;" xml:space="preserve">
<path d="M256,9C119,9,8,120,8,257s111,248,248,248s248-111,248-248S393,9,256,9z M385.1,350.1c-4.3,1-8.8,1.2-13.2,1.3
	c-36.9,0.1-73.9,0.1-110.8,0.1c-36,0-72,0-108,0c-30.5,0-55.8-17.3-67.3-46c-10.5-26.2-3.9-57.5,17-77.5c5.3-5.1,7.7-9.9,7.4-17.4
	c-2.5-54.8,45.3-113.4,115.6-111.4c31.6,0.9,58.8,13.5,79.8,37.5c6.3,7.3,12.4,11.2,22.5,12.9c28.6,5.1,47.9,22.6,56.6,50.7
	c1.9,6.2,4.8,9.3,10.7,11.7c31.4,12.3,47.9,40.6,46.5,70C440.1,317,418.1,342.3,385.1,350.1z"/>
<path d="M296.7,171.6c-54.4,48.8-108.5,97.6-162.5,146.8c-6.1,5.6-9.9,5.5-15.9,0.1c-23.2-21.3-23.7-58.6,0.7-78.3
	c8.7-7,11.1-12.9,10.5-24.3c-2.7-58.5,46.3-98.7,83.5-96.9c40.9,0.6,65.8,14.1,84.7,39.6C301.6,163.7,301.6,167.1,296.7,171.6z"/>
</svg>
