<?xml version="1.0" encoding="utf-8"?>
<!-- Generator: Adobe Illustrator 22.1.0, SVG Export Plug-In . SVG Version: 6.00 Build 0)  -->
<svg version="1.1" id="Capa_1" xmlns="http://www.w3.org/2000/svg" xmlns:xlink="http://www.w3.org/1999/xlink" x="0px" y="0px"
	 viewBox="0 0 97.2 97.2" style="enable-background:new 0 0 97.2 97.2;" xml:space="preserve">
<g>
	<g>
		<path d="M48.6,0C21.8,0,0,21.8,0,48.6s21.8,48.6,48.6,48.6s48.6-21.8,48.6-48.6S75.4,0,48.6,0z M48.6,92.6c-24.3,0-44-19.7-44-44
			s19.7-44,44-44s44,19.7,44,44S72.8,92.6,48.6,92.6z"/>
	</g>
</g>
<g>
	<path d="M42.4,75.1h-4.5L60.2,31c-0.9,0-1.9,0-3.2,0c-1.2,0-2.6,0-4,0.1s-3,0.1-4.5,0.1c-1.6,0-3.1,0-4.6,0.1
		c-3.5,0.1-7.3,0.1-11.3,0.2l1.2-5.9h31.4v3.2L42.4,75.1z"/>
</g>
</svg>
