<?xml version="1.0" encoding="utf-8"?>
<!-- Generator: Adobe Illustrator 22.1.0, SVG Export Plug-In . SVG Version: 6.00 Build 0)  -->
<svg version="1.1" id="Capa_1" xmlns="http://www.w3.org/2000/svg" xmlns:xlink="http://www.w3.org/1999/xlink" x="0px" y="0px"
	 viewBox="0 0 97.2 97.2" style="enable-background:new 0 0 97.2 97.2;" xml:space="preserve">
<g>
	<g>
		<path d="M48.6,0C21.8,0,0,21.8,0,48.6s21.8,48.6,48.6,48.6s48.6-21.8,48.6-48.6S75.4,0,48.6,0z M48.6,92.6c-24.3,0-44-19.7-44-44
			s19.7-44,44-44s44,19.7,44,44S72.8,92.6,48.6,92.6z"/>
		<path d="M73.9,47.1H52.1V20.8c0-2.2-1.8-4-4-4s-4,1.8-4,4v30.3c0,2.2,1.8,4,4,4h25.8c2.2,0,4-1.8,4-4S76.1,47.1,73.9,47.1z"/>
	</g>
</g>
</svg>
