<?xml version="1.0" encoding="utf-8"?>
<!-- Generator: Adobe Illustrator 24.0.2, SVG Export Plug-In . SVG Version: 6.00 Build 0)  -->
<svg version="1.1" id="Capa_1" xmlns="http://www.w3.org/2000/svg" xmlns:xlink="http://www.w3.org/1999/xlink" x="0px" y="0px"
	 viewBox="0 0 512 512" style="enable-background:new 0 0 512 512;" xml:space="preserve">
<style type="text/css">
	.st0{fill:#FF9966;}
	.st1{fill:#FF662C;}
	.st2{fill:#E7E7E7;}
	.st3{fill:#D3D3D8;}
</style>
<path class="st0" d="M256,0C115.3,0,0,115.3,0,256s115.3,256,256,256s256-115.3,256-256S396.7,0,256,0z"/>
<path class="st1" d="M512,256c0,140.7-115.3,256-256,256V0C396.7,0,512,115.3,512,256z"/>
<polygon class="st2" points="298.3,256 383.2,340.9 340.9,383.2 256,298.3 171.1,383.2 128.8,340.9 213.7,256 128.8,171.1 
	171.1,128.8 256,213.7 340.9,128.8 383.2,171.1 "/>
<polygon class="st3" points="298.3,256 383.2,340.9 340.9,383.2 256,298.3 256,213.7 340.9,128.8 383.2,171.1 "/>
</svg>
