<?xml version="1.0" encoding="utf-8"?>
<!-- Generator: Adobe Illustrator 23.0.6, SVG Export Plug-In . SVG Version: 6.00 Build 0)  -->
<svg version="1.1" id="Layer_1" xmlns="http://www.w3.org/2000/svg" xmlns:xlink="http://www.w3.org/1999/xlink" x="0px" y="0px"
	 viewBox="0 0 512 512" style="enable-background:new 0 0 512 512;" xml:space="preserve">
<style type="text/css">
	.st0{fill:#FFF780;}
	.st1{fill:#FFC02E;}
	.st2{fill:#FFA73B;}
</style>
<path class="st0" d="M419.3,462H92.8c-5,0-9.6-2.5-12.5-6.6c-43.1-63.2-46.4-184.7-46.6-202.7c0-0.7,0-1.4,0-2.1
	c0-8.3,6.7-15.1,15.1-15.1h0c8.3,0,15,6.7,15.1,15c0,0.1,0,1,0,2.6c1.3,42.9,36.6,77.4,79.9,77.4c44.1,0,79.9-35.8,79.9-79.9
	c0-8.3,6.8-15.1,15.1-15.1h34.6c8.3,0,15.1,6.8,15.1,15.1c0,44.1,35.8,79.9,79.9,79.9c43.3,0,78.6-34.6,79.9-77.5c0-1.5,0-2.4,0-2.4
	c0-8.3,6.8-15,15.1-15h0c8.3,0,15.1,6.8,15.1,15.1c0,0.7,0,1.4,0,2.1c-0.3,18-3.6,139.6-46.6,202.7C428.9,459.5,424.2,462,419.3,462
	z"/>
<path class="st1" d="M463.3,235.4C463.3,235.4,463.3,235.4,463.3,235.4c-8.3,0-15.1,6.7-15.1,15c0,0.1,0,0.9,0,2.5
	c-1.3,43-36.6,77.5-79.9,77.5c-44.1,0-79.9-35.8-79.9-79.9c0-8.3-6.8-15.1-15.1-15.1H256V462h163.2c5,0,9.6-2.5,12.5-6.6
	c43.1-63.2,46.4-184.7,46.6-202.7c0-0.7,0-1.4,0-2.1C478.4,242.2,471.6,235.5,463.3,235.4z"/>
<path class="st1" d="M256,184c-26.9,0-48.7,21.9-48.7,48.7s21.9,48.7,48.7,48.7s48.7-21.9,48.7-48.7S282.9,184,256,184z"/>
<path class="st2" d="M256,184v97.4c26.9,0,48.7-21.9,48.7-48.7S282.9,184,256,184z"/>
<path class="st1" d="M48.7,221.6C21.9,221.6,0,243.5,0,270.3S21.9,319,48.7,319s48.7-21.9,48.7-48.7S75.6,221.6,48.7,221.6z"/>
<path class="st2" d="M463.3,221.6c-26.9,0-48.7,21.9-48.7,48.7c0,26.9,21.9,48.7,48.7,48.7s48.7-21.9,48.7-48.7
	C512,243.5,490.1,221.6,463.3,221.6z"/>
<path class="st1" d="M419.3,511.4H92.8c-8.3,0-15.1-6.8-15.1-15.1v-45h356.7v45C434.3,504.7,427.6,511.4,419.3,511.4z"/>
<path class="st2" d="M256,511.4h163.2c8.3,0,15.1-6.8,15.1-15.1v-45H256V511.4z"/>
</svg>
