<?xml version="1.0" encoding="utf-8"?>
<!-- Generator: Adobe Illustrator 24.0.0, SVG Export Plug-In . SVG Version: 6.00 Build 0)  -->
<svg version="1.1" id="Layer_1" xmlns="http://www.w3.org/2000/svg" xmlns:xlink="http://www.w3.org/1999/xlink" x="0px" y="0px"
	 viewBox="0 0 496.2 496.2" style="enable-background:new 0 0 496.2 496.2;" xml:space="preserve">
<path d="M248.1,0C111.1,0,0,111.1,0,248.1s111.1,248.1,248.1,248.1s248.1-111.1,248.1-248.1S385.1,0,248.1,0z M395.2,250.2
	l-11.4-9.9v101c0,11.2-9.1,20.4-20.4,20.4h-73v-63.3c0-14.7-11.9-26.7-26.7-26.7h-30c-14.7,0-26.7,11.9-26.7,26.7v63.3h-71.6
	c-11.2,0-20.4-9.1-20.4-20.4V240.4l-11.4,9.8c-5.9,5.1-14.7,4.4-19.7-1.4c-5.1-5.9-4.4-14.7,1.4-19.7L237.6,97.3l2.8-2.5
	c2.5-2.2,5.7-3.3,8.9-3.4c3.2,0.1,6.3,1.2,8.9,3.4l2.8,2.5l152.4,131.7c5.9,5.1,6.5,13.9,1.4,19.7
	C409.9,254.7,401,255.3,395.2,250.2z"/>
</svg>
