<?xml version="1.0" encoding="utf-8"?>
<!-- Generator: Adobe Illustrator 24.0.2, SVG Export Plug-In . SVG Version: 6.00 Build 0)  -->
<svg version="1.0" id="Layer_1" xmlns="http://www.w3.org/2000/svg" xmlns:xlink="http://www.w3.org/1999/xlink" x="0px" y="0px"
	 viewBox="0 0 512 512" style="enable-background:new 0 0 512 512;" xml:space="preserve">
<path d="M112,160H16c-8.8,0-16,7.2-16,16v288c0,8.8,7.2,16,16,16h96c8.8,0,16-7.2,16-16V176C128,167.2,120.8,160,112,160z M96,448
	H32V192h64V448z"/>
<path d="M452.9,192h-94.5c-8.3,0-12.4-5.5-13.8-7.9c-1.4-2.4-4.2-8.7-0.2-15.9l33.3-60c7.3-13.1,8.1-28.6,2.1-42.4
	C373.8,52,362,42,347.4,38.4l-23.5-5.9c-5.7-1.4-11.8,0.4-15.8,4.8L180.5,179c-13.2,14.7-20.5,33.7-20.5,53.5V368
	c0,44.1,35.9,80,80,80l159.2,0c35.9,0,67.7-24.2,77.2-58.8l34.2-124.8c1-4.4,1.5-8.8,1.5-13.3C512,218.5,485.5,192,452.9,192
	L452.9,192z M479.5,256.5l-34,124.1c-5.7,20.8-24.7,35.3-46.3,35.3H240c-26.5,0-48-21.5-48-48V232.6c0-11.9,4.4-23.3,12.3-32.1
	L325.5,65.9l14.2,3.5c4.9,1.2,8.8,4.6,10.8,9.2c2,4.6,1.8,9.7-0.7,14.1l-33.3,60c-8.3,15-8.1,32.8,0.6,47.6
	c8.7,14.8,24.2,23.7,41.4,23.7h94.5c14.9,0,27.1,12.2,27.1,27.1C480,253.1,479.8,255.2,479.5,256.5L479.5,256.5z"/>
</svg>
