<?xml version="1.0" encoding="utf-8"?>
<!-- Generator: Adobe Illustrator 25.4.1, SVG Export Plug-In . SVG Version: 6.00 Build 0)  -->
<svg version="1.1" id="Layer_1" xmlns="http://www.w3.org/2000/svg" xmlns:xlink="http://www.w3.org/1999/xlink" x="0px" y="0px"
	 viewBox="0 0 311.4 408.8" style="enable-background:new 0 0 311.4 408.8;" xml:space="preserve">
<style type="text/css">
	.st0{fill:#FD592E;}
</style>
<g id="Layer_2_00000143605549549243060520000013763497914277938874_">
	<g id="Layer_1-2">
		<path class="st0" d="M153.3,408.8c-3.4-2.9-7.4-5.3-10-8.8c-37-49.5-73.8-99.3-110.7-148.9C16.9,230.1,6.2,207,2.1,181
			c-5.1-30.5-0.9-61.9,12.1-89.9C28.5,60,50.7,36,80.6,19.5c30.7-16.9,63.7-23,98.6-17.6C207,6,233.1,17.7,254.6,35.7
			c26,21.6,43.7,48.8,51.8,81.8c11.6,47.5,3,91.4-25.8,130.8c-37.2,50.9-75,101.3-112.7,151.8c-2.4,3.3-6,5.8-9,8.6H153.3z
			 M155.7,71.8c-46.2,0-83.8,37.4-83.9,83.7c-0.2,46.3,37.6,84.1,83.9,84.1c46.3,0,83.9-37.6,83.9-83.9S202,71.8,155.7,71.8
			L155.7,71.8L155.7,71.8z"/>
	</g>
</g>
</svg>
