<?xml version="1.0" encoding="utf-8"?>
<!-- Generator: Adobe Illustrator 25.4.1, SVG Export Plug-In . SVG Version: 6.00 Build 0)  -->
<svg version="1.1" id="Layer_1" xmlns="http://www.w3.org/2000/svg" xmlns:xlink="http://www.w3.org/1999/xlink" x="0px" y="0px"
	 viewBox="0 0 512 512" style="enable-background:new 0 0 512 512;" xml:space="preserve">
<style type="text/css">
	.st0{fill:#FFFFFF;}
</style>
<g id="Layer_2_00000124156686378934524880000000571974903599979404_">
	<g id="Layer_1-2">
		<path class="st0" d="M244.3,56h23.4c5.3,0.6,10.6,1.2,15.8,1.9c39.4,5.6,74.3,21.3,104.1,47.7c35.2,31,57.1,69.7,65.2,116
			c1.3,7.5,2.1,15.1,3.1,22.7v23.4c-0.2,1.4-0.5,2.8-0.7,4.1c-1,7.2-1.5,14.5-2.9,21.6c-7.6,39.9-25.6,74.2-54.2,103.1
			c-29.9,30.2-65.8,49.2-107.8,56.4c-7.5,1.3-15.2,2.1-22.7,3.1h-23.4c-5.3-0.6-10.6-1.2-15.8-1.9c-39.4-5.6-74.3-21.3-104.1-47.7
			c-35.2-31-57.1-69.7-65.2-116c-1.3-7.5-2.1-15.1-3.1-22.7v-23.4c0.2-1.4,0.5-2.8,0.7-4.1c1-7.2,1.5-14.5,2.9-21.6
			c7.6-39.8,25.7-74.2,54.2-103c29.9-30.2,65.8-49.2,107.7-56.4C229.1,57.8,236.7,57,244.3,56z M229.4,255.8
			c-2.3,1.8-3.5,2.6-4.5,3.6c-17.8,17.7-35.6,35.5-53.3,53.3c-1.4,1.4-2.7,2.8-3.9,4.3c-6.2,8.2-4.9,19.8,2.9,26.4
			c8.3,7,19.2,6.2,27.7-2.2c18.3-18.2,36.5-36.4,54.7-54.7c1-1,2-1.9,3.1-2.9c19,19,37.7,37.7,56.4,56.4c1.4,1.4,2.8,2.7,4.3,3.9
			c8.3,6.5,20.3,5.1,26.9-3.1c6.8-8.3,5.8-19-2.5-27.3c-18.1-18.2-36.2-36.3-54.4-54.4c-1-1-1.9-2-3-3.2c1.1-1.2,2.1-2.2,3.1-3.2
			c17.8-17.8,35.5-35.5,53.3-53.3c1.4-1.4,2.7-2.8,3.9-4.3c5.4-6.9,5.4-16.6,0-23.6c-7.6-9.9-20.9-10.4-30.4-1
			c-18.3,18.2-36.5,36.4-54.7,54.7c-1,1-2,1.9-3.7,3.5c-0.8-1.3-1.7-2.5-2.7-3.7c-17.7-17.8-35.5-35.6-53.3-53.3
			c-1.4-1.4-2.8-2.7-4.3-3.9c-7-5.4-16.6-5.3-23.6,0.1c-9.8,7.6-10.2,20.9-0.8,30.4c18.1,18.2,36.2,36.3,54.4,54.4
			C226.1,253.7,227.4,254.3,229.4,255.8z"/>
	</g>
</g>
</svg>
