<?xml version="1.0" encoding="utf-8"?>
<!-- Generator: Adobe Illustrator 25.4.1, SVG Export Plug-In . SVG Version: 6.00 Build 0)  -->
<svg version="1.1" id="Layer_1" xmlns="http://www.w3.org/2000/svg" xmlns:xlink="http://www.w3.org/1999/xlink" x="0px" y="0px"
	 viewBox="0 0 24 24" style="enable-background:new 0 0 24 24;" xml:space="preserve">
<style type="text/css">
	.st0{fill:#FFFFFF;}
</style>
<g>
	<path class="st0" d="M23.6,13.8c-0.1,0.3-0.1,0.7-0.2,1c-0.7,2.4-2.2,3.9-4.6,4.4c-0.4,0.1-0.8,0.1-1.3,0.1c-3.7,0-7.4,0-11.1,0
		c-2.4,0-4.1-1.1-5.3-3.1c-0.7-1.2-0.8-2.5-0.7-3.8C0.6,9.7,2.6,7.5,5.3,7C5.8,6.9,6.4,6.9,7,7C6.3,7.6,6.1,8.4,6.4,9.3
		c-0.3,0-0.5,0.1-0.8,0.1c-1.7,0.3-2.8,1.8-2.9,3.5c0,1.3,0.3,2.3,1.2,3.2C4.7,16.7,5.5,17,6.5,17c3.7,0,7.4,0,11.1,0
		c1.8,0,3.3-1.1,3.6-2.8c0.4-1.8-0.1-3.4-1.7-4.4c-0.5-0.3-1.1-0.5-1.7-0.5c-2.3,0-4.5,0-6.8,0c0,0-0.1,0-0.1,0
		c0.2,0.4,0.3,0.8,0.5,1.2c0.1,0.2,0.2,0.5,0.3,0.7c0,0.1,0,0.2,0,0.3c-0.1,0-0.2,0-0.3-0.1c-1-0.7-1.9-1.5-2.9-2.2
		C8,9,7.6,8.6,7.2,8.3C7,8.2,7,8.1,7.2,7.9c1.4-1.1,2.8-2.1,4.1-3.2c0.1-0.1,0.2-0.1,0.3-0.1c0,0.1,0,0.2,0,0.3
		c-0.2,0.6-0.5,1.2-0.7,1.7c0,0.1-0.1,0.1-0.1,0.2c0.1,0,0.2,0,0.3,0c2.1,0,4.2,0,6.3,0c1,0,2,0.2,2.9,0.7c1.8,0.9,2.8,2.4,3.2,4.4
		c0,0.2,0.1,0.3,0.1,0.5C23.6,12.9,23.6,13.4,23.6,13.8z"/>
</g>
</svg>
