<?xml version="1.0" encoding="utf-8"?>
<!-- Generator: Adobe Illustrator 25.4.1, SVG Export Plug-In . SVG Version: 6.00 Build 0)  -->
<svg version="1.1" id="Layer_1" xmlns="http://www.w3.org/2000/svg" xmlns:xlink="http://www.w3.org/1999/xlink" x="0px" y="0px"
	 viewBox="0 0 24 24" style="enable-background:new 0 0 24 24;" xml:space="preserve">
<style type="text/css">
	.st0{fill:#FFFFFF;}
</style>
<g>
	<path class="st0" d="M7.2,24c-0.9-0.4-0.8-1.2-0.3-1.8c3.4-3.3,6.7-6.7,10-10c0.1-0.1,0.1-0.1,0.3-0.3c-0.1,0-0.2-0.1-0.2-0.1
		C13.6,8.4,10.2,5.1,6.9,1.7C6.6,1.4,6.4,1.1,6.5,0.6C6.7,0,7.5-0.2,8,0.2C8,0.3,8.1,0.3,8.2,0.4C11.8,4,15.4,7.6,19,11.2
		c0.2,0.2,0.3,0.4,0.4,0.6c0.1,0.3,0,0.5-0.2,0.8c-0.1,0.1-0.1,0.1-0.2,0.2c-3.6,3.6-7.1,7.1-10.7,10.7c-0.2,0.2-0.5,0.3-0.7,0.5
		C7.5,24,7.3,24,7.2,24z"/>
</g>
</svg>
