<svg xmlns="http://www.w3.org/2000/svg" viewBox="0 0 216.12 148.26"><title>Asset 1</title><g id="Layer_2" data-name="Layer 2"><g id="Layer_1-2" data-name="Layer 1"><path d="M108.77,96.67c16.31.1,29.94,6.61,41.72,17.53,2.34,2.17,4.42,4.79,1.72,7.7-2.94,3.18-5.5,1-8-1.37-21.3-20.27-50.36-20.22-71.66.11-2.38,2.27-4.83,4.29-7.66,1.5-3.1-3-.81-5.7,1.58-8.06A60.86,60.86,0,0,1,108.77,96.67Z"/><path d="M90.17,74.17A8.75,8.75,0,1,1,81.64,65,8.89,8.89,0,0,1,90.17,74.17Z"/><path d="M135.37,83a9,9,0,1,1,8.8-9A8.89,8.89,0,0,1,135.37,83Z"/><path d="M0,108.35a40,40,0,0,0,39.91,39.91H167.29a48.85,48.85,0,0,0,13.85-95.68A55,55,0,0,0,74,37.79,37.34,37.34,0,0,0,23.21,72.1,40.1,40.1,0,0,0,0,108.35Zm8.39,0A31.67,31.67,0,0,1,28.94,78.79a4.18,4.18,0,0,0,2.72-4.21c-.05-.74-.07-1.36-.07-1.94a29,29,0,0,1,43.09-25.3,4.19,4.19,0,0,0,6.13-2.73A46.75,46.75,0,0,1,97,18.72,46,46,0,0,1,126.23,8.39,46.62,46.62,0,0,1,172.8,55v.81a4.19,4.19,0,0,0,3.29,4.16,40.46,40.46,0,0,1-8.79,79.95H39.91A31.56,31.56,0,0,1,8.39,108.35Z"/></g></g></svg>