<svg xmlns="http://www.w3.org/2000/svg" viewBox="0 0 501.18 500.5"><defs><style>.cls-1{fill:#fff;}</style></defs><g id="Layer_2" data-name="Layer 2"><g id="Layer_1-2" data-name="Layer 1"><path class="cls-1" d="M408.12,56.17,372,90.11c-23.59-16.94-50.77-30.54-81.46-36.44C230.19,42.08,176,55.78,126.92,92.25a41.25,41.25,0,0,1-17.52,7.2C89,102.7,75.73,118.32,75.29,139a62.94,62.94,0,0,1-5.53,25.06C17.31,274,74.15,405,190.12,441.59c5.29,1.67,10.83,6.76,13.51,11.73,7.19,13.32,17.48,21.31,32.44,22.36,14.58,1,26.52-5.43,33.69-17.65,4.14-7.06,9.07-9.48,16.29-10.91,85.68-16.94,145.72-76.15,162.07-161.7C458.27,232.35,446.64,183,417,137.94c-2.2-3.33-4.56-6.55-6.94-10l34.09-33.69c61.49,63.16,87.43,202.71,4.71,309C363.54,513,204.33,532.87,96.19,447.4c-109.41-86.47-128.35-245.29-42-352.51C142-14.26,300.13-32.06,408.12,56.17Z"/><path class="cls-1" d="M95,171.64c18.14,5.91,34.84,5,47.27-10.89,12-15.23,10.67-31.23.09-46.55,48.79-49.63,156.26-51.59,210.07-5.12l-35.11,35c-29.1-18.29-62.3-24-97.89-15.42-62.29,15-102.95,77.48-92.65,142.6,9.88,62.46,69,108.73,132.08,103.94,21.85-1.65,41.54-8.5,60.1-19.9a34.73,34.73,0,0,1,17.11-4.73c29.54-.2,47.54-25.86,36.87-53.17-1.25-3.19-3.29-7.08-2.44-9.9C381.75,249.9,376.11,214.65,356,182l35.12-35.56q33,43.17,34.68,96.28c2.71,87.59-53.94,159.48-139.57,178.87-8.06,1.83-13.39,1.36-19-6.43-13.33-18.4-38.84-20.37-54.84-4.11-7.18,7.3-12.89,6.58-21,3.73C96.83,381.8,49.18,272.34,89.88,181.34,91.3,178.16,93.15,175.15,95,171.64Z"/><path class="cls-1" d="M347,274.63c-35.28-1.29-55.62,24.86-41.71,58.3-34.17,27.15-90.44,22.07-124.5-11.24-36.48-35.68-40.59-92.83-9.52-132.45,31.25-39.85,85.85-50.69,128.8-24.9q-28.14,28.44-56,56.56c-3.45,3.48-7.07,6.8-10.41,10.38-10.81,11.58-11,26.73-.57,36.93s25.46,10,36.94-1.36c18.73-18.44,37.18-37.16,55.55-56,3.39-3.48,5.81-7.9,9.95-13.64C350,224,354.94,247.93,347,274.63Z"/></g></g></svg>