<svg xmlns="http://www.w3.org/2000/svg" viewBox="0 0 384 384"><defs><style>.cls-1{fill:#fff;}</style></defs><title>Asset 2</title><g id="Layer_2" data-name="Layer 2"><g id="Layer_1-2" data-name="Layer 1"><path class="cls-1" d="M384,195.75V384H0V0H384V187.5c-.43-.86-.91-1.7-1.29-2.58a16.68,16.68,0,0,0-18.49-10c-8,1.57-13.48,8.51-13.41,17a16.56,16.56,0,0,0,31.91,6.46C383.1,197.45,383.57,196.61,384,195.75ZM327.83,192c0-74.69-61.09-135.8-135.57-135.67s-135.2,61-135.32,135.57S117.8,327.7,192.33,327.72,327.85,266.68,327.83,192Zm-300,43.63A16.69,16.69,0,0,0,28.12,269a16.69,16.69,0,0,0-.26-33.38ZM104.4,57A16.62,16.62,0,1,0,87.82,40.28,16.7,16.7,0,0,0,104.4,57Zm17.26,286.9a16.63,16.63,0,1,0-16.52,16.79A16.65,16.65,0,0,0,121.66,343.89Zm40.66,4.17a16.7,16.7,0,0,0-.29,33.4c8.94.2,16.73-7.49,16.8-16.56A16.85,16.85,0,0,0,162.32,348.06ZM75,304.8a16.57,16.57,0,1,0-33.14.25,16.89,16.89,0,0,0,16.74,16.62A16.66,16.66,0,0,0,75,304.8ZM238.81,19.13a16.56,16.56,0,1,0-16.48,16.8A16.7,16.7,0,0,0,238.81,19.13ZM356.4,147.94a16.5,16.5,0,0,0,16.88-16.39,16.66,16.66,0,1,0-16.88,16.39ZM33.92,192.27a16.63,16.63,0,0,0-16.64-16.61A16.69,16.69,0,0,0,17.47,209,16.58,16.58,0,0,0,33.92,192.27ZM57.87,96.18a16.6,16.6,0,0,0,16.84-16.4,16.69,16.69,0,0,0-33.37-.33A16.66,16.66,0,0,0,57.87,96.18Zm221.4-39.79a16.58,16.58,0,0,0,.43-33.15,16.58,16.58,0,1,0-.43,33.15Zm46.51,39a16.61,16.61,0,0,0,17-16.36,16.67,16.67,0,1,0-33.33-.19A16.59,16.59,0,0,0,325.78,95.37ZM343,305a16.57,16.57,0,1,0-16.46,16.33A16.51,16.51,0,0,0,343,305ZM161.68,36a16.59,16.59,0,0,0-.19-33.18,16.37,16.37,0,0,0-16.56,16.66A16.49,16.49,0,0,0,161.68,36ZM44.3,132.58A16.56,16.56,0,1,0,27.84,149.1,16.64,16.64,0,0,0,44.3,132.58Zm312.44,136a16.6,16.6,0,1,0,.25-33.19,16.6,16.6,0,1,0-.25,33.19ZM239.53,364.74A16.65,16.65,0,0,0,223,348a16.67,16.67,0,0,0-.12,33.33A16.67,16.67,0,0,0,239.53,364.74Zm57-20.75a16.55,16.55,0,1,0-16.76,16.56A16.65,16.65,0,0,0,296.51,344Z"/><path d="M384,195.75c-.43.86-.9,1.7-1.28,2.58a16.56,16.56,0,0,1-31.91-6.46c-.07-8.44,5.42-15.38,13.41-17a16.68,16.68,0,0,1,18.49,10c.38.88.86,1.72,1.29,2.58Z"/><path d="M327.83,192c0,74.71-60.94,135.78-135.5,135.75S56.81,266.5,56.94,191.87,117.82,56.43,192.26,56.3,327.8,117.28,327.83,192Z"/><path d="M27.86,235.6A16.69,16.69,0,0,1,28.12,269a16.69,16.69,0,0,1-.26-33.38Z"/><path d="M104.4,57a16.62,16.62,0,1,1,16.73-16.55A16.73,16.73,0,0,1,104.4,57Z"/><path d="M121.66,343.89A16.63,16.63,0,1,1,105,327.31,16.72,16.72,0,0,1,121.66,343.89Z"/><path d="M162.32,348.06a16.85,16.85,0,0,1,16.51,16.84c-.07,9.07-7.86,16.76-16.8,16.56a16.7,16.7,0,0,1,.29-33.4Z"/><path d="M75,304.8a16.66,16.66,0,0,1-16.4,16.87,16.89,16.89,0,0,1-16.74-16.62A16.57,16.57,0,1,1,75,304.8Z"/><path d="M238.81,19.13A16.56,16.56,0,1,1,222.15,2.52,16.71,16.71,0,0,1,238.81,19.13Z"/><path d="M356.4,147.94a16.59,16.59,0,1,1,16.88-16.39A16.64,16.64,0,0,1,356.4,147.94Z"/><path d="M33.92,192.27a16.58,16.58,0,1,1-33.16.19,16.82,16.82,0,0,1,16.52-16.8A16.63,16.63,0,0,1,33.92,192.27Z"/><path d="M57.87,96.18A16.6,16.6,0,1,1,58.18,63a16.83,16.83,0,0,1,16.53,16.8A16.6,16.6,0,0,1,57.87,96.18Z"/><path d="M279.27,56.39A16.58,16.58,0,1,1,296,39.86,16.5,16.5,0,0,1,279.27,56.39Z"/><path d="M325.78,95.37a16.58,16.58,0,1,1,.73-33.16A16.85,16.85,0,0,1,342.73,79,16.61,16.61,0,0,1,325.78,95.37Z"/><path d="M343,305a16.57,16.57,0,1,1-33.14-.59A16.57,16.57,0,1,1,343,305Z"/><path d="M161.68,36a16.49,16.49,0,0,1-16.75-16.52,16.59,16.59,0,0,1,33.18-.37A16.63,16.63,0,0,1,161.68,36Z"/><path d="M44.3,132.58A16.72,16.72,0,0,1,27.84,149.1,16.7,16.7,0,1,1,44.3,132.58Z"/><path d="M356.74,268.58a16.6,16.6,0,1,1,16.75-16.5A16.57,16.57,0,0,1,356.74,268.58Z"/><path d="M239.53,364.74a16.67,16.67,0,0,1-16.67,16.61A16.67,16.67,0,0,1,223,348,16.65,16.65,0,0,1,239.53,364.74Z"/><path d="M296.51,344A16.55,16.55,0,1,1,280,327.14,16.62,16.62,0,0,1,296.51,344Z"/></g></g></svg>