<svg xmlns="http://www.w3.org/2000/svg" viewBox="0 0 261.28079 249.73173">
  <defs>
    <style>
      .cls-1 {
        fill: #ffa232;
      }

      .cls-2 {
        fill: #fb8d26;
      }

      .cls-3 {
        fill: #ff7d2e;
      }

      .cls-4 {
        fill: #ff652c;
      }

      .cls-5 {
        fill: #fea833;
      }

      .cls-6 {
        fill: #feb935;
      }
    </style>
  </defs>
  <title>Asset 1</title>
  <g id="Layer_2" data-name="Layer 2">
    <g id="Layer_1-2" data-name="Layer 1">
      <path class="cls-1" d="M130.82235.70509a20.88748,20.88748,0,0,1,19.66,12.82423,21.4921,21.4921,0,0,1-4.74925,23.92909c-2.83718,2.801-5.97238,5.33715-8.55569,8.35066-5.93288,6.92089-6.246,12.74234-1.54752,20.51921,1.113,1.84234,2.535,3.57469,3.25681,5.56048a7.93968,7.93968,0,0,1-3.0371,9.72217,8.39532,8.39532,0,0,1-10.2832.12867c-3.20331-2.3133-4.69837-5.66685-3.07-9.64313a39.19385,39.19385,0,0,1,3.10772-5.64139c4.8516-7.83752,4.53269-14.01141-1.5457-20.93818-2.50878-2.85893-5.58141-5.216-8.31275-7.88807A21.43586,21.43586,0,0,1,110.75644,13.736C114.20344,5.55066,121.68457.6924,130.82235.70509Z"/>
      <path class="cls-2" d="M156.5255,237.82609c.33291-1.23825.81225-3.5123,1.55484-5.69688a19.88358,19.88358,0,0,0-7.6145-23.316c-1.36738-.93494-2.85751-1.68831-4.26718-2.5638-9.254-5.7473-10.9293-13.70389-4.80582-22.77139,5.17289-7.6599,5.05523-8.9646-.20632-16.15407a5.50665,5.50665,0,0,1-.47731-4.78584c.48059-.96793,3.18662-1.84224,4.10525-1.32912a5.3776,5.3776,0,0,1,2.20247,4.21582c-.50384,8.84413.22978,10.21034,8.59421,13.75022,10.04072,4.24929,13.04663,11.7378,8.70766,21.69316-5.22121,11.97962-2.87148,20.4025,8.0504,27.948,3.99287,2.75852,6.73932,6.09652,6.0795,11.1254-.54752,4.173-2.67035,7.40117-6.90266,8.983C163.98087,251.75216,156.705,246.93648,156.5255,237.82609Z"/>
      <path class="cls-3" d="M57.80772,24.31074a20.88748,20.88748,0,0,1,23.44321-1.18086A21.4921,21.4921,0,0,1,91.47387,45.28045c-.649,3.93367-1.69465,7.82833-2.01331,11.78474-.7318,9.08638,2.43666,13.98007,10.80892,17.51,1.98338.83625,4.152,1.40194,5.90319,2.58422A7.93968,7.93968,0,0,1,109.43015,86.81a8.39528,8.39528,0,0,1-8.24365,6.1484c-3.95126.01137-7.13195-1.82293-8.15176-5.997a39.19534,39.19534,0,0,1-.80173-6.39065C91.55126,71.37837,87.66434,66.571,78.67536,64.54c-3.71008-.8383-7.58135-.93919-11.36165-1.49548a21.43584,21.43584,0,0,1-18.0803-16.39711C47.2109,37.99924,50.40765,29.67152,57.80772,24.31074Z"/>
      <path class="cls-4" d="M217.97824,201.03773c-.45849-1.19745-1.40735-3.319-2.09065-5.52279a19.88357,19.88357,0,0,0-19.86506-14.38734c-1.65577.04734-3.30413.31372-4.95918.434-10.86481.7897-16.89693-4.66259-17.27268-15.59765-.31742-9.23753-1.17949-10.2239-9.662-12.94764a5.50663,5.50663,0,0,1-3.19919-3.59127c-.18013-1.06555,1.49518-3.36345,2.54-3.48828a5.37759,5.37759,0,0,1,4.25983,2.11608c4.79083,7.45121,6.18739,8.12528,15.035,6.07261,10.62078-2.464,17.45425,1.82747,19.79556,12.4319,2.81739,12.76067,9.66921,18.19379,22.94033,17.87849,4.85171-.11525,9.03567.97092,11.45776,5.42721,2.00987,3.69783,2.18994,7.55726-.30428,11.32469C232.1953,207.922,223.47841,208.30267,217.97824,201.03773Z"/>
      <path class="cls-4" d="M12.6127,86.325A20.8875,20.8875,0,0,1,30.88456,71.59012a21.49209,21.49209,0,0,1,21.29032,11.9113c1.78713,3.56386,3.23037,7.32934,5.29809,10.71744,4.7488,7.78118,10.18858,9.87789,19.03672,7.81257,2.09612-.48927,4.18309-1.3063,6.29475-1.37913a7.93968,7.93968,0,0,1,8.30781,5.89277,8.39528,8.39528,0,0,1-3.05531,9.81966c-3.18995,2.33168-6.84136,2.71727-10.11984-.06017a39.1946,39.1946,0,0,1-4.40494-4.6989c-5.95469-7.03607-11.925-8.64061-20.391-5.0002-3.49426,1.50254-6.68548,3.69639-10.07078,5.46834a21.43584,21.43584,0,0,1-24.26525-2.6382C12.0856,103.62792,9.77691,95.01165,12.6127,86.325Z"/>
      <path class="cls-4" d="M246.07089,135.1543c-1.07477-.69927-3.0894-1.85787-4.93758-3.23918a19.88358,19.88358,0,0,0-24.52784.03679c-1.31172,1.01153-2.48869,2.19593-3.75695,3.26606-8.32564,7.02506-16.4105,6.15965-23.142-2.46613-5.68648-7.28675-6.96369-7.578-15.42718-4.79567a5.50663,5.50663,0,0,1-4.6991-1.025c-.772-.75618-.76736-3.59994.00452-4.315a5.37758,5.37758,0,0,1,4.69008-.79192c8.25557,3.21217,9.78162,2.93663,15.733-3.92453,7.14407-8.23619,15.19494-8.7809,23.32223-1.57792,9.77985,8.66758,18.5166,9.03566,29.06783.98,3.85737-2.945,7.8807-4.52554,12.45955-2.344,3.79955,1.81024,6.21375,4.82674,6.41032,9.34073C261.61921,132.36721,254.79085,137.79884,246.07089,135.1543Z"/>
      <path class="cls-4" d="M12.50025,163.06061a20.88749,20.88749,0,0,1,6.12129-22.66072,21.49209,21.49209,0,0,1,24.22551-2.87769c3.5406,1.83277,6.9215,4.03079,10.5858,5.55645,8.41552,3.50383,14.04881,2.00269,19.99314-4.869,1.40822-1.6279,2.61637-3.51558,4.28193-4.8157a7.93966,7.93966,0,0,1,10.18484-.11586,8.39529,8.39529,0,0,1,3.30006,9.74014c-1.2102,3.76138-3.93761,6.21957-8.22249,5.89961a39.19365,39.19365,0,0,1-6.32562-1.21233c-8.95315-2.19222-14.72632.01892-19.43574,7.94031-1.94375,3.26945-3.236,6.92007-4.93322,10.34344a21.43586,21.43586,0,0,1-21.1817,12.1284C22.2442,177.36876,15.31191,171.75507,12.50025,163.06061Z"/>
      <path class="cls-4" d="M230.073,65.341c-1.28052.066-3.5914.31286-5.89853.28169a19.88357,19.88357,0,0,0-19.82181,14.44686C203.886,81.659,203.63,83.309,203.233,84.92017c-2.60637,10.57708-9.65583,14.62911-20.1718,11.60736-8.88351-2.55268-10.088-2.0376-15.29968,5.1881a5.50664,5.50664,0,0,1-4.4041,1.93285c-1.06907-.158-2.7368-2.46137-2.53266-3.4936a5.3776,5.3776,0,0,1,3.32887-3.39744c8.567-2.2538,9.63961-3.3737,10.42149-12.42263.93856-10.86239,7.13168-16.03526,17.9406-14.985C205.52245,70.61355,212.807,65.776,216.60812,53.057c1.38964-4.64987,3.71557-8.2934,8.70222-9.21988,4.13793-.7688,7.86411.25257,10.6764,3.78892C241.01366,53.94717,238.682,62.35505,230.073,65.341Z"/>
      <path class="cls-3" d="M57.51332,225.20709a20.88747,20.88747,0,0,1-8.36741-21.9309,21.49208,21.49208,0,0,1,17.90738-16.5675c3.94169-.59837,7.96886-.80738,11.8301-1.72692,8.8678-2.11186,12.54287-6.63747,13.31286-15.69078.18242-2.14472.05028-4.382.63355-6.41283a7.9397,7.9397,0,0,1,8.17162-6.08024,8.39529,8.39529,0,0,1,8.3949,5.94022c1.23182,3.75436.47018,7.34621-3.18442,9.606a39.19547,39.19547,0,0,1-5.83012,2.73731c-8.53181,3.489-11.90273,8.67121-11.05665,17.84788.34921,3.78754,1.44955,7.50051,2.08866,11.26769a21.43587,21.43587,0,0,1-10.00746,22.26238C73.80646,231.05529,64.89848,230.58841,57.51332,225.20709Z"/>
      <path class="cls-2" d="M176.09526,18.26424c-.99716.80608-2.72161,2.36408-4.60643,3.69495a19.8836,19.8836,0,0,0-7.54454,23.33873c.55669,1.5601,1.31941,3.04547,1.94526,4.58234,4.10845,10.089.787,17.51076-9.4967,21.24724-8.68733,3.15644-9.359,4.28112-9.32821,13.19018a5.50662,5.50662,0,0,1-2.42689,4.15238c-.95774.50059-3.66087-.38264-4.10245-1.33772a5.37761,5.37761,0,0,1,.69615-4.70525c5.60607-6.8589,5.8156-8.3954,1.12932-16.17571-5.62544-9.33954-3.65564-17.1647,5.70627-22.66837,11.2655-6.62276,14.31537-14.81816,9.91451-27.3423-1.60888-4.57864-1.86878-8.89347,1.62093-12.57408C162.49825.61244,166.11314-.75145,170.46694.4565,178.24928,2.61566,181.305,10.78827,176.09526,18.26424Z"/>
      <path class="cls-1" d="M130.45844,249.02664a20.8875,20.8875,0,0,1-19.66-12.82423,21.49209,21.49209,0,0,1,4.74925-23.92909c2.83718-2.801,5.97238-5.33715,8.55569-8.35066,5.93288-6.92089,6.246-12.74235,1.54752-20.51921-1.11305-1.84234-2.535-3.57469-3.25681-5.56049a7.93967,7.93967,0,0,1,3.0371-9.72216,8.39529,8.39529,0,0,1,10.2832-.12867c3.20331,2.3133,4.69837,5.66684,3.07,9.64313a39.19491,39.19491,0,0,1-3.10772,5.64139c-4.8516,7.83752-4.53269,14.01141,1.5457,20.93818,2.50878,2.85892,5.58141,5.216,8.31275,7.88807a21.43586,21.43586,0,0,1,4.98929,23.89288C147.07735,244.18106,139.59622,249.03933,130.45844,249.02664Z"/>
      <path class="cls-5" d="M104.75529,11.90563c-.33291,1.23826-.81225,3.51231-1.55484,5.69688a19.8836,19.8836,0,0,0,7.6145,23.316c1.36738.93493,2.85751,1.68831,4.26718,2.5638,9.254,5.74729,10.9293,13.70388,4.80582,22.77139-5.17289,7.65989-5.05523,8.9646.20632,16.15407a5.50663,5.50663,0,0,1,.47731,4.78583c-.48059.96793-3.18662,1.84225-4.10525,1.32912a5.37756,5.37756,0,0,1-2.20247-4.21581c.50384-8.84413-.22978-10.21035-8.59421-13.75022C95.62893,66.30739,92.623,58.81889,96.962,48.86353c5.22121-11.97962,2.87148-20.40251-8.0504-27.948-3.99287-2.75852-6.73932-6.09653-6.0795-11.1254.54752-4.173,2.67035-7.40117,6.90266-8.983C97.29992-2.02043,104.57579,2.79525,104.75529,11.90563Z"/>
      <path class="cls-6" d="M203.47307,225.421a20.88748,20.88748,0,0,1-23.44321,1.18086,21.49211,21.49211,0,0,1-10.22294-22.15058c.649-3.93366,1.69465-7.82832,2.01331-11.78473.7318-9.08638-2.43666-13.98007-10.80892-17.51-1.98338-.83625-4.152-1.40194-5.90319-2.58422a7.93968,7.93968,0,0,1-3.25748-9.65056,8.3953,8.3953,0,0,1,8.24365-6.14841c3.95126-.01136,7.13195,1.82294,8.15176,5.997a39.19534,39.19534,0,0,1,.80173,6.39065c.68175,9.19238,4.56867,13.99972,13.55765,16.0308,3.71008.8383,7.58135.93918,11.36165,1.49547a21.43587,21.43587,0,0,1,18.0803,16.39712C214.06989,211.73249,210.87314,220.06021,203.47307,225.421Z"/>
      <path class="cls-6" d="M43.30255,48.694c.45849,1.19745,1.40735,3.31895,2.09065,5.52279A19.88358,19.88358,0,0,0,65.25826,68.60413c1.65577-.04734,3.30413-.31373,4.95918-.434,10.86481-.78969,16.89693,4.6626,17.27268,15.59765.31742,9.23754,1.17949,10.22391,9.662,12.94765a5.50663,5.50663,0,0,1,3.19919,3.59127c.18013,1.06555-1.49518,3.36345-2.54,3.48828a5.37762,5.37762,0,0,1-4.25983-2.11608c-4.79083-7.45121-6.18739-8.12528-15.035-6.07262-10.62078,2.464-17.45425-1.82746-19.79556-12.4319-2.81739-12.76067-9.66921-18.19378-22.94033-17.87849-4.85171.11526-9.03567-.97092-11.45776-5.4272-2.00987-3.69784-2.18994-7.55727.30428-11.3247C29.08549,41.80973,37.80238,41.429,43.30255,48.694Z"/>
      <path class="cls-6" d="M248.66808,163.4067a20.88747,20.88747,0,0,1-18.27185,14.73491,21.49211,21.49211,0,0,1-21.29032-11.9113c-1.78713-3.56386-3.23037-7.32934-5.29809-10.71745-4.7488-7.78117-10.18858-9.87788-19.03672-7.81256-2.09612.48926-4.18309,1.3063-6.29475,1.37913a7.93968,7.93968,0,0,1-8.30781-5.89277,8.39528,8.39528,0,0,1,3.05531-9.81966c3.19-2.33169,6.84136-2.71727,10.11984.06016a39.19611,39.19611,0,0,1,4.40494,4.6989c5.95469,7.03608,11.925,8.64062,20.391,5.0002,3.49426-1.50253,6.68548-3.69638,10.07078-5.46834a21.43585,21.43585,0,0,1,24.26525,2.63821C249.19519,146.10381,251.50388,154.72008,248.66808,163.4067Z"/>
      <path class="cls-6" d="M15.2099,114.57743c1.07477.69926,3.0894,1.85786,4.93758,3.23917a19.88357,19.88357,0,0,0,24.52784-.03678c1.31172-1.01154,2.48869-2.19593,3.757-3.26607,8.32564-7.02505,16.4105-6.15964,23.142,2.46614,5.68648,7.28675,6.96369,7.578,15.42718,4.79566a5.50664,5.50664,0,0,1,4.6991,1.025c.77205.75617.76736,3.59994-.00452,4.315a5.37761,5.37761,0,0,1-4.69008.79192c-8.25557-3.21217-9.78162-2.93663-15.733,3.92453-7.14407,8.23618-15.19494,8.7809-23.32223,1.57792-9.77985-8.66758-18.5166-9.03566-29.06783-.98-3.85737,2.945-7.8807,4.52554-12.45955,2.344C2.62375,132.96367.20955,129.94716.013,125.43318-.33842,117.36451,6.48994,111.93288,15.2099,114.57743Z"/>
      <path class="cls-6" d="M203.76747,24.52463a20.8875,20.8875,0,0,1,8.36741,21.93091A21.49209,21.49209,0,0,1,194.2275,63.023c-3.94169.59837-7.96886.80737-11.8301,1.72691-8.8678,2.11187-12.54287,6.63748-13.31286,15.69078-.18242,2.14473-.05028,4.382-.63355,6.41284a7.93968,7.93968,0,0,1-8.17162,6.08023,8.39529,8.39529,0,0,1-8.3949-5.94021c-1.23182-3.75436-.47018-7.34621,3.18442-9.60595a39.19447,39.19447,0,0,1,5.83012-2.73731c8.53181-3.489,11.90273-8.67122,11.05665-17.84788-.34921-3.78755-1.44955-7.50052-2.08866-11.2677a21.43585,21.43585,0,0,1,10.00746-22.26237C187.47433,18.67644,196.38231,19.14332,203.76747,24.52463Z"/>
      <path class="cls-5" d="M85.18553,231.46749c.99716-.80608,2.72161-2.36408,4.60643-3.695A19.88359,19.88359,0,0,0,97.3365,204.4338c-.55669-1.5601-1.31941-3.04547-1.94526-4.58234-4.10845-10.089-.787-17.51075,9.4967-21.24723,8.68733-3.15644,9.359-4.28113,9.32821-13.19019a5.50666,5.50666,0,0,1,2.42689-4.15238c.95774-.50058,3.66087.38265,4.10245,1.33773a5.37758,5.37758,0,0,1-.69615,4.70524c-5.60607,6.8589-5.8156,8.39541-1.12932,16.17572,5.62544,9.33953,3.65564,17.16469-5.70627,22.66836-11.2655,6.62277-14.31537,14.81816-9.91451,27.34231,1.60888,4.57864,1.86878,8.89346-1.62093,12.57408-2.89577,3.05419-6.51066,4.41807-10.86446,3.21013C83.03151,247.11607,79.9758,238.94346,85.18553,231.46749Z"/>
      <path class="cls-6" d="M248.78054,86.67112a20.88749,20.88749,0,0,1-6.12129,22.66072,21.4921,21.4921,0,0,1-24.22551,2.87769c-3.5406-1.83278-6.9215-4.0308-10.5858-5.55646-8.41552-3.50382-14.04881-2.00268-19.99314,4.869-1.40822,1.62789-2.61637,3.51558-4.28193,4.8157a7.93967,7.93967,0,0,1-10.18484.11586,8.39529,8.39529,0,0,1-3.30006-9.74014c1.2102-3.76138,3.93761-6.21957,8.22249-5.89962a39.19582,39.19582,0,0,1,6.32562,1.21233c8.95315,2.19222,14.72632-.01891,19.43574-7.9403,1.94375-3.26945,3.236-6.92007,4.93322-10.34344a21.43584,21.43584,0,0,1,21.1817-12.1284C239.03659,72.363,245.96888,77.97666,248.78054,86.67112Z"/>
      <path class="cls-6" d="M31.20777,184.39069c1.28052-.066,3.5914-.31286,5.89853-.28169a19.88357,19.88357,0,0,0,19.82181-14.44686c.46664-1.58936.72267-3.23937,1.11969-4.85058,2.60637-10.57708,9.65583-14.62912,20.1718-11.60736,8.88351,2.55267,10.088,2.03759,15.29968-5.1881a5.50664,5.50664,0,0,1,4.4041-1.93286c1.06907.158,2.7368,2.46138,2.53266,3.49361a5.37761,5.37761,0,0,1-3.32887,3.39743c-8.567,2.2538-9.63961,3.37371-10.42149,12.42263-.93856,10.8624-7.13168,16.03526-17.9406,14.985-13.00674-1.26377-20.29127,3.57378-24.09241,16.29279-1.38964,4.64987-3.71557,8.2934-8.70222,9.21988-4.13793.7688-7.86411-.25257-10.6764-3.78892C20.26713,195.78456,22.59875,187.37667,31.20777,184.39069Z"/>
    </g>
  </g>
</svg>
