<svg xmlns="http://www.w3.org/2000/svg" viewBox="0 0 491.60145 243.049">
  <defs>
    <style>
      .cls-1 {
        fill: #1b2934;
      }

      .cls-2 {
        fill: #ff9000;
      }
    </style>
  </defs>
  <title>Asset 1</title>
  <g id="Layer_2" data-name="Layer 2">
    <g id="Layer_1-2" data-name="Layer 1">
      <g>
        <path class="cls-1" d="M80.63756,199.7954c-.58517-.51678-1.01543-.96871-1.51549-1.32766-8.3823-6.01735-16.68272-12.12179-23.69583-19.722a3.61958,3.61958,0,0,0-2.33463-.54911,3.36408,3.36408,0,0,0-1.65005.6363c-7.83372,4.88563-15.44964,3.1584-22.91921-.80833-2.421-1.28567-4.61581-2.97252-6.9649-4.39565-1.58647-.96114-1.62472-1.779-.2072-2.98849,4.59937-3.9242,9.91382-4.02923,15.44634-2.85584a32.56886,32.56886,0,0,1,12.33687,5.55982,3.23206,3.23206,0,0,0,1.82363.66327,7.93518,7.93518,0,0,0-.70854-1.31454,120.30242,120.30242,0,0,1-16.85917-27.583c-.49692-1.14342-1.091-1.97355-2.66951-1.71845-11.73079,1.89584-20.64685-2.80462-27.81225-11.4978-.92863-1.12663-1.78275-2.312-2.90762-3.778a21.28439,21.28439,0,0,1,2.60519-.97313c8.28262-1.83975,15.173.96816,21.16047,6.33856,2.62341,2.353,4.94857,5.02389,7.64546,7.79305a5.43051,5.43051,0,0,0,.17156-1.52663c-.666-2.99871-1.27142-6.01907-2.16-8.95621a3.51176,3.51176,0,0,0-2.1145-2.10074C14.2611,125.78332,7.39848,117.07769,3.97169,105.126c-1.064-3.71078-.97907-3.76542,3.03107-3.32929,9.19177.99967,14.424,6.73906,17.812,14.508,1.274,2.92121,2.157,6.00541,3.65121,8.99289a15.775,15.775,0,0,0,.22986-1.77557c.08688-4.45643.21318-8.91412.15579-13.3693a2.98666,2.98666,0,0,0-1.32476-2.1964C15.73,101.68767,11.79559,91.35758,11.72146,79.00485c-.01372-2.28557.2918-2.44128,2.464-1.6874,7.56068,2.62393,11.569,8.22452,13.45486,15.50991a69.99387,69.99387,0,0,1,1.12634,6.914c.12926.83971.21943,1.68518.32745,2.528l.601.104c.31-.89989.68913-1.78337.91755-2.70265.79332-3.19265,1.61912-6.38225,2.23492-9.60907a3.11291,3.11291,0,0,0-.74155-2.54585C22.57,79.434,20.72121,69.12538,22.82148,57.61448c.31189-1.70937,1.15555-1.72286,2.5354-1.01736,6.23505,3.18789,8.92939,8.61466,9.87208,15.05376a50.83915,50.83915,0,0,1,.12933,6.777,5.01509,5.01509,0,0,0,.50376,2.52279c.43981-.74134.93572-1.45668,1.30972-2.2285,1.62935-3.36243,3.16453-6.76987,4.85993-10.09962.64734-1.27138.0611-1.79043-.8498-2.50487C33.28674,59.92536,30.15281,46.81732,34.398,37.942c2.24808-4.7,3.5544-4.88751,6.74824-.666,5.08938,6.727,6.03242,14.3023,4.39977,22.33023a2.94128,2.94128,0,0,0,.10969,1.90223c.51475-.61789,1.07815-1.20333,1.536-1.85923,2.147-3.07609,4.20211-6.21587,6.42741-9.23614a2.3993,2.3993,0,0,0,.19438-2.94913,28.83037,28.83037,0,0,1-.84561-25.04359c.87233-2.08547,2.623-3.85786,4.14144-5.634,1.09568-1.2817,1.97237-.91894,2.46479.69532,2.373,7.77919,2.72134,15.52053-.3,23.227-.13375.34116-.28824.67589-.39649,1.02447-.03726.12.03713.27311.131.82672l2.76331-2.06835.2369.12605-6.17116,8.31648.58352.532c.62764-.41878,1.26069-.83,1.88208-1.2575,5.2349-3.601,10.99948-5.66946,17.44651-5.217a30.34744,30.34744,0,0,1,6.676,1.63355c1.84275.57068,1.67458,1.54756.28516,2.60989-7.6873,5.87764-16.16989,8.06582-25.6345,5.03738-1.83353-.58667-3.00734-.42493-3.96362,1.12038Q49.11394,59.85465,45.166,66.34644c-.12521.20565-.05851.523-.13314,1.39631,1.03245-.90033,1.66829-1.442,2.28983-1.99885,4.97156-4.45453,10.56763-7.71172,17.44985-8.18059a27.64931,27.64931,0,0,1,6.66914.4674c2.7674.49481,3.26809,1.76593,1.59765,3.97908a26.39649,26.39649,0,0,1-15.50647,9.77382,27.627,27.627,0,0,1-12.89173.11269,2.73,2.73,0,0,0-2.37775.75813c-1.80664,4.00335-3.40412,8.09711-5.04738,12.17019-.06709.16627.05483.40544.17086,1.10873.74759-.74651,1.29059-1.23186,1.767-1.77323,4.63967-5.27282,9.926-9.67988,17.25709-10.5783,2.88661-.35377,5.90743.19355,8.85027.49036,1.326.13373,1.65481.89547.92251,2.18671C61.20853,85.03148,50.12608,90.48155,39.8194,89.1483c-3.68021-.47608-3.69628-.4805-4.69462,3.00169-3.19685,11.15048-3.37018,22.50643-2.36406,33.93719a6.16554,6.16554,0,0,0,.60882,1.36325c.633-.86134,1.0822-1.44454,1.50151-2.04759,2.88752-4.15283,5.46688-8.55585,8.73894-12.3947,3.12985-3.672,7.64883-5.27319,12.57845-5.426,2.47926-.07687,2.79143.46443,1.8876,2.67715-1.89962,4.65062-4.08814,9.1-8.1106,12.43529a26.909,26.909,0,0,1-14.4164,6.05364c-1.3.15022-2.21528.41672-1.76911,2.00156,1.01143,3.59259,1.974,7.19837,2.99408,10.78858a9.91663,9.91663,0,0,0,.99578,1.705c.56013-1.06911.91252-1.8024,1.31831-2.50621,2.30394-3.99619,4.2749-8.23208,7.02254-11.91305a16.97119,16.97119,0,0,1,13.709-6.82227c1.6239-.04245,2.34284.39274,1.51856,2.02478-1.48714,2.94445-2.757,6.01881-4.50347,8.8079a21.731,21.731,0,0,1-16.278,10.47821c-2.61027.34186-2.65258.53958-1.641,2.90785,6.59569,15.441,16.92221,28.13682,29.96039,38.81331,4.06424,3.328,8.25355,6.51035,12.39855,9.74347.54106.422,1.15978.74885,1.74254,1.11977l.46858-.353c-.20282-.56076-.374-1.13483-.61332-1.68027-2.61392-5.95736-3.80742-12.09517-1.33344-18.30811.7847-1.97069,2.63248-3.60018,4.20687-5.18318.95641-.96164,2.05473-.66372,2.61195.71388,2.73374,6.75892,3.59676,13.59593.53808,20.46213a11.38687,11.38687,0,0,1-2.945,3.78222c-1.36965,1.18656-1.17386,1.93716.25775,2.58423,5.81977,2.63044,11.64221,5.25824,17.51586,7.77026,2.32221.99319,4.76465,1.73056,7.18323,2.49047,1.43534.451,1.90417,1.08269,1.27812,2.56875-.556,1.31971-.96336,2.05764-2.72575,1.52853a115.70027,115.70027,0,0,1-23.5928-10.04647c-1.55563-.87641-2.3872-.84237-3.42884.68316-2.52422,3.6969-6.46282,5.324-10.68744,6.29939a35.73366,35.73366,0,0,1-17.3157-.38c-2.36276-.61943-2.555-1.07979-1.33548-3.18874,2.3982-4.14711,6.45686-5.75007,10.93093-6.44351a34.28946,34.28946,0,0,1,14.44994.72585,6.92686,6.92686,0,0,0,1.31709.23662C79.97971,200.1727,80.17553,200.00436,80.63756,199.7954Z"/>
        <path class="cls-1" d="M430.03924,122.07781a17.21958,17.21958,0,0,1,11.72466,3.06135c4.8969,3.27416,7.64208,8.10689,9.835,13.31171q.937,2.224,1.882,4.4449l.66023-.05458a17.4099,17.4099,0,0,0,1.2698-2.663c.89151-3.09238,1.67587-6.21434,2.49868-9.32563.44173-1.67023-.76579-1.74273-1.92072-1.93954-7.29331-1.24274-13.458-4.49918-17.89678-10.33526a50.365,50.365,0,0,1-4.93064-8.54521c-1.00024-2.05607-.49448-2.5692,1.91448-2.51585a19.246,19.246,0,0,1,15.55016,7.90285,105.90637,105.90637,0,0,1,5.86761,9.55763,5.89528,5.89528,0,0,0,1.68556,2.05635,15.62993,15.62993,0,0,0,.70718-2.26827c1.40023-8.99512.70839-17.93245-.87573-26.83516-.42283-2.37627-1.03009-4.72244-1.41183-7.104-.28874-1.8013-1.18265-2.199-2.955-1.95088-10.16782,1.42339-18.74024-1.50571-25.49509-9.19226a1.14507,1.14507,0,0,1-.1468-.16532q-1.37941-2.40507-2.75379-4.8129a30.10449,30.10449,0,0,1,5.53254-1.41443,22.54289,22.54289,0,0,1,16.85141,5.868c2.35631,2.07378,4.42493,4.46018,7.041,6.6322A11.68464,11.68464,0,0,0,454.264,83.703c-1.32655-3.41653-2.78522-6.78561-4.043-10.22534-.60579-1.6566-1.44526-1.99022-3.19858-1.64731-9.93321,1.94273-18.66273-.47027-26.03684-7.30622a13.20614,13.20614,0,0,1-2.3476-2.91273c-1.2835-2.1646-.77571-3.1593,1.77682-3.67167a24.93677,24.93677,0,0,1,19.39779,4.06479,57.67689,57.67689,0,0,1,5.09662,4.26772,4.15456,4.15456,0,0,0,1.942,1.11324,4.91712,4.91712,0,0,0-.35348-1.34455c-2.57778-4.28014-5.20354-8.53268-7.78472-12.81092-.88427-1.4657-1.93266-1.56483-3.567-1.05326-9.6155,3.00979-18.262.72178-26.21829-4.90333a12.49047,12.49047,0,0,1-1.33937-1.37371c4.51077-3.45506,9.46166-3.49516,14.52815-2.63907a26.907,26.907,0,0,1,13.43722,6.6019l.65629-.57179q-3.72485-4.98876-7.4497-9.97757l.33842-.33858,2.72381,3.42734.89776-.432c-3.04548-8.71412-3.32638-17.35818.13256-26.34245.96364.6243,1.88972.92727,2.318,1.55491,1.55968,2.28616,3.436,4.52055,4.31877,7.06445a27.66292,27.66292,0,0,1-1.56538,22.955,2.63052,2.63052,0,0,0-.24151,2.17246c2.51062,3.7847,5.16706,7.477,8.13026,11.69888a25.42744,25.42744,0,0,0-.01342-2.804,29.73058,29.73058,0,0,1,3.07916-18.52081,29.29769,29.29769,0,0,1,3.97882-4.96868c1.02215-1.1647,1.97561-.96362,2.87555.30631a19.33669,19.33669,0,0,1,3.47866,13.11719c-.57643,7.0785-2.71774,13.47168-9.02861,17.83929a1.94145,1.94145,0,0,0-.64622,1.74833c1.83681,4.07617,3.80146,8.09732,5.7447,12.12728.0849.17613.31579.285.95532.83565,0-1.14731.019-1.86918-.003-2.58988a28.79355,28.79355,0,0,1,3.19019-15.0673,15.34275,15.34275,0,0,1,7.14393-6.72451c1.30875-.60906,2.04074-.373,2.376,1.15505,1.78027,8.11365.97625,15.9236-3.32648,23.11056-1.42756,2.38452-3.85322,4.19055-5.76836,6.30791-.53994.597-1.37475,1.46616-1.24619,2.02984a92.59771,92.59771,0,0,0,3.74225,12.57579c.24222-1.18184.55413-2.35472.71452-3.54708a32.06524,32.06524,0,0,1,4.82711-13.554,18.77421,18.77421,0,0,1,10.04189-7.33c1.28809-.44627,1.81763-.00826,1.83976,1.2787.14187,8.239-1.14338,16.16206-6.92192,22.53747-2.31562,2.55475-5.63092,4.229-8.40059,6.41376-.76321.60205-1.68808,1.58967-1.70572,2.41735-.09778,4.59473.05648,9.19479.14231,13.79271.00625.33467.15409.66681.81773,1.20276.43553-.97278.884-1.94028,1.30431-2.91931a94.55151,94.55151,0,0,1,3.93155-9.05479c3.6712-6.55541,9.136-10.72558,17.08191-11.12535,2.3419-.11782,2.72042.17048,1.88522,2.24321-1.77227,4.39834-3.38613,8.92618-5.776,13.00237-3.70225,6.31461-9.72889,9.76228-17.00856,11.02227-1.88254.32586-2.84493.99283-3.105,3.00547-.35441,2.74273-1.17065,5.42768-1.76619,8.14213a11.27719,11.27719,0,0,0-.13377,1.43561l.55714.40061c.90444-.94295,1.81851-1.87725,2.71166-2.83027,5.073-5.41316,10.59377-10.12652,18.34815-11.43787a18.1825,18.1825,0,0,1,9.87059,1.3029c-1.40082,1.81787-2.54425,3.478-3.867,4.988-5.92326,6.76171-13.17955,10.91723-22.55994,10.79871a7.07371,7.07371,0,0,1-1.34178-.077c-4.5472-.94694-3.951-.88427-6.14731,3.27781-5.00908,9.49252-10.05235,18.96174-17.41544,27.00414a1.64665,1.64665,0,0,0-.31662,1.41927c.82386-.53167,1.668-1.03582,2.46828-1.59952a39.55385,39.55385,0,0,1,14.44957-6.77812c5.34175-1.15529,9.86923.38286,13.99727,3.602,1.15855.90343,1.22954,1.80091.04968,2.669-7.45813,5.48726-15.60767,9.0383-25.17995,7.74162a20.33346,20.33346,0,0,1-6.546-2.62761c-1.1975-.64409-1.925-.8101-2.88125.20666a128.04887,128.04887,0,0,1-24.09952,19.90614c-.428.27566-.86659.53547-1.30023.8027l.34835.69929c.7893-.10219,1.58845-.15738,2.36626-.314,6.16273-1.24087,12.29673-1.56626,18.34423.56223a11.77325,11.77325,0,0,1,6.95966,5.8548c.60409,1.19771.57517,2.09567-.97893,2.4864-7.56747,1.90259-15.13407,2.30117-22.39714-.93352a15.786,15.786,0,0,1-5.75467-4.64987c-1.31088-1.68773-2.12923-1.58533-3.80874-.80214-6.26848,2.92316-12.60337,5.71222-18.94728,8.47718-1.49348.651-3.17.89735-4.67179,1.53386-1.92918.81763-2.243-.47059-2.83263-1.70519-.71849-1.50446.18994-1.91263,1.34189-2.36394q11.2305-4.3997,22.4397-8.85132a10.74376,10.74376,0,0,0,1.19251-.60789c2.62968-1.44319,2.59-1.4125.604-3.71985-2.77257-3.2213-3.76947-7.0717-3.97541-11.18425a27.96564,27.96564,0,0,1,2.12381-12.44048c.68971-1.63654,1.63766-1.87667,3.10255-.90536,3.09705,2.05352,4.41442,5.10772,4.89151,8.53458a23.80951,23.80951,0,0,1-2.46209,14.69669c-.228.43369-.36046.91534-.76891,1.97644a16.81712,16.81712,0,0,0,2.08973-.94078c14.80179-9.90093,27.4798-21.8494,36.778-36.962,2.30592-3.74791,4.1098-7.78949,6.18779-11.67395.80485-1.50462.2539-2.09478-1.3054-2.37637-11.56356-2.08814-17.71306-9.78923-21.482-19.92172A9.24482,9.24482,0,0,1,430.03924,122.07781Z"/>
        <path class="cls-1" d="M65.73054,35.82335c.22752-.37194.35889-.85727.67908-1.06687,2.33073-1.52572,2.14575-3.29914,1.37726-5.7659a29.08466,29.08466,0,0,1,3.01518-24.696A16.90651,16.90651,0,0,1,74.986,0c4.30117,11.65867,1.77113,22.16723-4.92192,31.7353,4.45178-1.33723,9.06966-3.06122,13.84583-4.0654a19.41938,19.41938,0,0,1,14.19155,2.228C94.137,37.59642,77.19924,40.61657,65.73054,35.82335Z"/>
        <path class="cls-1" d="M29.18747,161.94128c-9.87063-.62892-17.10651-3.73292-23.43237-9.02785-1.153-.96507-1.11267-1.70509.02217-2.63326a15.61945,15.61945,0,0,1,12.79987-3.269A33.95846,33.95846,0,0,1,37.434,156.34781c1.61737,1.56624,1.60648,2.31287-.53791,3.16978C33.97806,160.6837,30.88191,161.42355,29.18747,161.94128Z"/>
        <path class="cls-1" d="M475.37128,146.85586a17.33378,17.33378,0,0,1,10.358,3.04514c.874.60795,1.54686,1.25212.52712,2.28036-6.60158,6.6569-20.36938,12.38562-31.0348,7.83486-2.52514-1.07741-2.6737-1.40537-.89167-3.34981A29.87342,29.87342,0,0,1,475.37128,146.85586Z"/>
        <path class="cls-1" d="M110.71746,4.86765c-1.05016,1.50883-1.86047,2.78077-2.77809,3.97383-5.45914,7.09785-12.17707,12.22815-21.6045,13.04307-1.03828.08975-2.089.03378-3.13032.09989-1.69634.10768-3.38971.26036-5.24841.407.13752.34219.00734.15706.04975.10411C82.4164,16.98967,86.3378,11.03987,92.4287,7.04018a20.74274,20.74274,0,0,1,15.84051-2.98887A21.80655,21.80655,0,0,1,110.71746,4.86765Z"/>
        <path class="cls-1" d="M413.65531,22.199a16.96243,16.96243,0,0,0-3.38188-.4403c-9.181.853-16.65829-2.52929-22.84575-8.88212-2.28776-2.34894-4.19043-5.05644-6.61275-8.02149a33.11777,33.11777,0,0,1,3.4397-.9272,21.8494,21.8494,0,0,1,17.21058,4.48346C406.34447,12.2212,409.7179,17.26755,413.65531,22.199Z"/>
        <path class="cls-1" d="M458.41865,108.33613a19.44192,19.44192,0,0,1-15.19372-2.35376c-4.462-2.735-7.65063-6.68308-10.56781-10.86821-.50428-.72347-.96677-1.47482-1.471-2.19834-1.61944-2.32382-1.499-2.561,1.22653-3.24413a14.35944,14.35944,0,0,1,10.59355,1.50877C450.10122,94.99188,454.41446,101.21424,458.41865,108.33613Z"/>
        <path class="cls-1" d="M33.68961,108.417c.57836-1.094,1.15789-2.32493,1.856-3.48781,3.322-5.53359,7.04215-10.70394,13.16246-13.67631a18.82928,18.82928,0,0,1,10.93514-1.43264c1.72917.22293,2.00909.9515,1.03975,2.33069-1.94593,2.76869-3.6989,5.68013-5.80077,8.32836-4.99746,6.29649-11.70432,9.06243-19.81288,8.64569a3.21175,3.21175,0,0,1-.86069-.18865C34.08548,108.89416,34.0028,108.739,33.68961,108.417Z"/>
        <path class="cls-1" d="M441.69346,196.54529c-4.60921-.01155-9.10936-.55482-13.06457-3.10736-3.48364-2.24817-3.44157-3.171.32658-4.80088,6.82283-2.95115,13.93154-4.00907,21.12778-1.67167a16.12113,16.12113,0,0,1,5.909,4.0392c1.70922,1.68923,1.40143,2.61521-.93122,3.21281-4.36989,1.11951-8.82128,1.93483-13.23877,2.87671Z"/>
        <path class="cls-1" d="M49.58948,197.12149c-4.11954-.89386-8.553-1.826-12.9698-2.82855-1.821-.41339-2.25613-1.331-1.11163-2.989a11.70945,11.70945,0,0,1,7.95922-4.85344c7.28653-1.30841,14.271-.01184,21.05658,2.65711,1.34519.52908,1.6193,1.46119.54834,2.30366-1.82892,1.43869-3.6779,3.11006-5.81968,3.84872C56.346,196.26234,53.15579,196.47839,49.58948,197.12149Z"/>
        <path class="cls-1" d="M425.90337,35.65674c-8.63717,5.2971-26.45425,2.26325-32.29067-5.56045a14.052,14.052,0,0,1,2.17785-1.24436c8.4512-3.02211,16.42658-1.59865,24.06822,2.58932,1.82782,1.00177,3.5996,2.10355,5.36837,3.20368C425.50382,34.817,425.62581,35.22676,425.90337,35.65674Z"/>
        <path class="cls-1" d="M422.74276,31.82289c-3.38395-2.36509-4.5839-5.62867-5.72788-8.85912-2.43774-6.88425-3.41106-13.907-1.597-21.116.5429-2.15738,1.047-2.32118,2.75367-.8393a19.27461,19.27461,0,0,1,5.56656,8.864,30.53788,30.53788,0,0,1,.225,18.98831C423.66554,29.81157,423.20486,30.71364,422.74276,31.82289Z"/>
        <path class="cls-1" d="M77.65154,169.83869c-.65379,3.02988-1.1567,5.90557-1.93338,8.70874a8.36038,8.36038,0,0,1-1.93546,3.41441,24.08187,24.08187,0,0,1-3.66554,2.67412,18.28732,18.28732,0,0,1-2.26185-3.54731c-2.0367-5.76485-2.52463-11.65609.10907-17.32513.89928-1.93565,2.75456-3.53057,4.42056-5.01572,1.37021-1.22146,2.69628-.75271,3.1233,1.09082C76.28058,163.17277,76.94838,166.53009,77.65154,169.83869Z"/>
        <path class="cls-1" d="M414.34042,168.15628c.47106-2.08149,1.16917-5.3416,1.95868-8.58039.39215-1.60887,1.55623-2.00485,2.85895-1.065a12.08775,12.08775,0,0,1,3.67021,3.38364c3.832,6.90771,3.66567,13.96417.0183,20.89882-1.21048,2.30138-2.04381,2.32819-3.8426.45244C415.26808,179.35,414.7493,174.42236,414.34042,168.15628Z"/>
        <path class="cls-1" d="M63.64771,135.98814c-2.04576,6.239-3.58092,12.67352-8.3917,17.653-2.60562,2.69694-6.25506,4.35447-9.07468,4.00468,1.66111-6.88578,2.60648-13.98271,8.45959-19.04947C57.23917,136.34712,61.08489,135.25085,63.64771,135.98814Z"/>
        <path class="cls-1" d="M428.4599,135.78818a11.49107,11.49107,0,0,1,8.892,2.956,20.11508,20.11508,0,0,1,3.7636,4.83441c2.41164,4.32635,3.53075,9.0776,4.52557,14.56636a43.96422,43.96422,0,0,1-4.69976-1.4275,13.32358,13.32358,0,0,1-6.77112-6.15178c-2.31714-4.61514-4.305-9.38832-6.43171-14.09488Z"/>
        <path class="cls-1" d="M56.00944,170.35716c-1.4133-8.13184,1.22651-19.35323,10.37494-23.14849,1.00511-.417,2.021-.77218,1.98781.82946-.1469,7.09163-1.374,13.84029-7.186,18.84156A53.07907,53.07907,0,0,1,56.00944,170.35716Z"/>
        <path class="cls-1" d="M423.785,147.10533c8.4741,1.13938,13.478,11.71161,12.09906,22.41819C427.6711,168.13371,422.232,156.13106,423.785,147.10533Z"/>
      </g>
      <polygon class="cls-2" points="246.131 193.973 254.103 210.127 271.931 212.719 259.031 225.293 262.076 243.049 246.131 234.666 230.185 243.049 233.23 225.293 220.33 212.719 238.158 210.127 246.131 193.973"/>
      <polygon class="cls-2" points="301.213 198.012 307.872 211.507 322.766 213.672 311.989 224.176 314.533 239.01 301.213 232.007 287.892 239.01 290.436 224.176 279.658 213.672 294.552 211.507 301.213 198.012"/>
      <polygon class="cls-2" points="191.049 198.012 197.709 211.507 212.603 213.672 201.825 224.176 204.37 239.01 191.049 232.007 177.728 239.01 180.272 224.176 169.495 213.672 184.389 211.507 191.049 198.012"/>
      <polygon class="cls-2" points="349.11 199.332 355.029 211.328 368.268 213.252 358.689 222.589 360.95 235.774 349.11 229.549 337.269 235.774 339.53 222.589 329.95 213.252 343.189 211.328 349.11 199.332"/>
      <polygon class="cls-2" points="142.194 199.332 148.114 211.328 161.353 213.252 151.773 222.589 154.034 235.774 142.194 229.549 130.353 235.774 132.615 222.589 123.035 213.252 136.274 211.328 142.194 199.332"/>
      <g>
        <path class="cls-1" d="M159.516,80.84668q0,1.13526.00976,2.042.00879.9082.02832,1.64551a.70935.70935,0,0,0,.49121.7373l2.09864.624.05712.8125q-2.25072-.05713-4.5-.05664-2.28809,0-4.689.05664l-.0752-.8125,2.3252-.7002a.62736.62736,0,0,0,.51074-.58593q.01832-.75587.02832-1.69239.00879-.936.00928-2.07031v-15.333q0-.96387-.00928-1.73926-.01025-.7749-.02832-1.39843a.64558.64558,0,0,0-.4541-.64356l-2.34424-.7373-.0376-.8125q2.439.07617,4.76514.07519.45777,0,1.16553-.02832.70679-.02782,1.71924-.0664,1.032-.03663,1.71972-.05664c.458-.01172.82129-.01856,1.08887-.01856q4.35571,0,6.53418,1.626A5.55451,5.55451,0,0,1,172.1078,66.459a6.78254,6.78254,0,0,1-1.49511,4.56641,9.53,9.53,0,0,1-4.561,2.69434q1.207,1.81494,2.22266,3.50683,1.01586,1.69189,1.88818,3.10059.87231,1.40917,1.59766,2.48633a11.5615,11.5615,0,0,0,1.34961,1.70117,5.5099,5.5099,0,0,0,.64306.55762,3.36532,3.36532,0,0,0,.6709.38769,6.16158,6.16158,0,0,0,.73731.26465c.2583.07617.54541.15137.86035.22754l.05664.832a19.00166,19.00166,0,0,1-2.2876.16992q-.77564,0-1.36279-.03808a5.97435,5.97435,0,0,1-1.04785-.15137,4.24314,4.24314,0,0,1-.834-.293,4.063,4.063,0,0,1-.73779-.46289,7.052,7.052,0,0,1-1.543-1.69238q-.7566-1.106-1.57178-2.50489-.81445-1.39891-1.69629-2.97754-.8811-1.57909-1.8584-3.09179-.28784-.45411-.48877-.71778a1.69269,1.69269,0,0,0-.44091-.416,1.51365,1.51365,0,0,0-.55616-.208,6.0351,6.0351,0,0,0-.81445-.07617l-1.32226-.03809Zm0-7.97852q1.15283.05714,2.13671.05762a6.95844,6.95844,0,0,0,4.79248-1.38965,5.63136,5.63136,0,0,0,1.522-4.3584,5.41733,5.41733,0,0,0-1.45557-4.19726,6.62843,6.62843,0,0,0-4.55664-1.32324q-.52954,0-1.13428.03808-.605.03809-1.30468.11328Z"/>
        <path class="cls-1" d="M178.02528,70.29688a16.68538,16.68538,0,0,1,6.52295-1.60645,6.621,6.621,0,0,1,4.58985,1.5127,5.50959,5.50959,0,0,1,1.668,4.36718l-.09472,7.86524a12.19854,12.19854,0,0,0,.04736,1.5498,1.60582,1.60582,0,0,0,.34033.89844,1.49138,1.49138,0,0,0,.82227.43457,7.68124,7.68124,0,0,0,1.4751.1416l.09423.73731a19.4542,19.4542,0,0,1-1.9873.64355,7.52929,7.52929,0,0,1-1.59424.32129,2.54278,2.54278,0,0,1-2.5415-1.89063,8.82,8.82,0,0,1-5.04492,1.90918,6.62286,6.62286,0,0,1-4.27051-1.29492,4.42114,4.42114,0,0,1-1.61475-3.6582,4.549,4.549,0,0,1,2.59961-4.292q2.59937-1.37988,8.15772-1.37989l.02-1.47461a4.03755,4.03755,0,0,0-1.07764-3.13867,4.80324,4.80324,0,0,0-3.36621-1.02148,18.54954,18.54954,0,0,0-4.31055.64355Zm9.16944,7.79q-3.97632,0-5.4292.8125a2.8864,2.8864,0,0,0-1.45264,2.74219,3.03038,3.03038,0,0,0,.9624,2.543,4.15874,4.15874,0,0,0,2.61475.74609,7.56353,7.56353,0,0,0,3.26855-.66113Z"/>
        <path class="cls-1" d="M200.95888,71.18555q-.11353,6.39111-.11377,10.30468a4.576,4.576,0,0,0,.58642,2.7129,2.71622,2.71622,0,0,0,2.231.74707,22.2816,22.2816,0,0,0,3.40283-.34082l.11377.85058a13.28234,13.28234,0,0,1-5.84228,1.64551,4.04894,4.04894,0,0,1-3.11817-1.10645,4.76877,4.76877,0,0,1-1.02246-3.33691q0-3.668.13233-11.58984l-2.60889-.64258-.11328-.77539,2.91552-.24512,1.3335-4.57617q1.08178-.28272,1.9707-.54785l.18946.13183q-.05714,2.28808-.05664,4.27344v.69922h5.69091v1.7959Z"/>
        <path class="cls-1" d="M224.44032,85.30859a11.70648,11.70648,0,0,1-3.30859,1.4375,12.799,12.799,0,0,1-3.15723.43457,9.4963,9.4963,0,0,1-6.72119-2.373,8.53366,8.53366,0,0,1-2.562-6.58887,9.88725,9.88725,0,0,1,2.39014-6.8623,8.156,8.156,0,0,1,6.38867-2.666,6.79865,6.79865,0,0,1,5.21777,1.99414,7.75313,7.75313,0,0,1,1.86572,5.51172,10.51881,10.51881,0,0,1-.05615,1.07715H212.56728q0,4.06641,1.90966,5.81445,1.90942,1.749,5.97412,1.748a23.88336,23.88336,0,0,0,3.876-.33985Zm-3.76221-9.60449v-.5664a6.66931,6.66931,0,0,0-.84277-3.8379,2.90489,2.90489,0,0,0-2.5083-1.15332,3.89258,3.89258,0,0,0-3.37012,1.626,7.41236,7.41236,0,0,0-1.314,3.93164Z"/>
        <path class="cls-1" d="M235.72743,60.18262q2.439.07617,4.689.07519,2.269,0,4.689-.07519l.07617.8125-2.3457.70019a.60088.60088,0,0,0-.49121.58594q-.019.66212-.02832,1.44629-.00953.78516-.00928,1.71094V75.78027q0,5.40675,1.72022,7.4961,1.71972,2.09033,5.53906,2.08984,3.876,0,5.61523-2.15625,1.74024-2.15478,1.74024-7.20312V65.43848q0-.92578-.00977-1.71094-.00879-.78516-.04687-1.44629a.61933.61933,0,0,0-.49219-.58594l-2.21094-.64355-.03906-.86914q2.40234.07617,4.12305.07519,1.64355,0,4.00781-.07519l.07422.8125-2.38086.7373a.64638.64638,0,0,0-.45508.64356q-.01758.624-.02734,1.39843-.00879.77637-.00977,1.73926v9.69922q0,6.20216-2.52344,9.16992-2.52539,2.96778-7.95117,2.96778-5.31152,0-7.8457-2.67481-2.53345-2.6748-2.53321-8.30957V65.51367q0-.96387-.00927-1.73926-.01026-.7749-.02881-1.39843a.6452.6452,0,0,0-.45361-.64356l-2.34424-.7373Z"/>
        <path class="cls-1" d="M273.371,70.59961a8.95834,8.95834,0,0,0-2.38282-.30273,5.28083,5.28083,0,0,0-2.86425.69042,2.12778,2.12778,0,0,0-1.08692,1.88086,2.36189,2.36189,0,0,0,.709,1.81543,7.5693,7.5693,0,0,0,2.63769,1.30469l1.54981.5293a10.66257,10.66257,0,0,1,3.8291,2.03222,3.92042,3.92042,0,0,1,1.21875,2.99708,4.85059,4.85059,0,0,1-2.041,4.13085,8.47775,8.47775,0,0,1-5.16211,1.50293,16.12383,16.12383,0,0,1-5.87988-1.17187q.64307-2.458,1.04-4.80274l.7373-.11328L267.037,85.1582a7.69761,7.69761,0,0,0,2.74121.415,4.892,4.892,0,0,0,2.80762-.71777,2.31146,2.31146,0,0,0,1.0498-2.02344,2.56065,2.56065,0,0,0-.709-1.90918,5.80867,5.80867,0,0,0-2.25977-1.21l-1.96582-.66211A7.57823,7.57823,0,0,1,265.1747,77a4.574,4.574,0,0,1-.97364-2.97852,4.63445,4.63445,0,0,1,1.88086-3.90332,7.99549,7.99549,0,0,1,4.96289-1.42773,15.52331,15.52331,0,0,1,5.21875.832q-.53026,2.15478-.96484,4.55664l-.71777.13184Z"/>
        <path class="cls-1" d="M305.70009,77.55762a9.52579,9.52579,0,0,1-2.60254,6.96679,8.86509,8.86509,0,0,1-6.61426,2.65625,8.39039,8.39039,0,0,1-6.33105-2.50488,9.04764,9.04764,0,0,1-2.41309-6.55078,9.42222,9.42222,0,0,1,2.52637-6.79687,8.83651,8.83651,0,0,1,6.69043-2.6377,8.52043,8.52043,0,0,1,6.34082,2.42969A8.75259,8.75259,0,0,1,305.70009,77.55762Zm-14.085.16992a11.16936,11.16936,0,0,0,1.31836,5.75684,4.27571,4.27571,0,0,0,3.918,2.22167,4.14147,4.14147,0,0,0,3.70118-1.957,10.72265,10.72265,0,0,0,1.27148-5.79492,10.44575,10.44575,0,0,0-1.33691-5.69043,4.33439,4.33439,0,0,0-3.88086-2.08008,4.22323,4.22323,0,0,0-3.70117,1.87207A10.06469,10.06469,0,0,0,291.61513,77.72754Z"/>
        <path class="cls-1" d="M308.29091,70.01367q3.17724-.605,5.99707-1.32324l.18945.13184v2.19336a10.84567,10.84567,0,0,1,6.13281-2.3252,5.25636,5.25636,0,0,1,5.73633,5.7666v6.67383q0,2.36279.03809,3.49707a.65787.65787,0,0,0,.49121.66211l2.09863.64258.03809.77539q-2.49609-.05713-4.3584-.05664-1.86182,0-4.13086.05664l-.07617-.77539,1.89062-.54785a.64215.64215,0,0,0,.47266-.58594q.019-.26514.01953-1.19141V75.36426a4.32544,4.32544,0,0,0-1.11328-3.33692,4.73232,4.73232,0,0,0-3.28223-1.01171,8.31265,8.31265,0,0,0-3.94238,1.09667V80.374q0,2.36427.03809,4.33008a.62161.62161,0,0,0,.43457.64258l1.96582.58594.03808.77539q-2.34375-.05713-4.20605-.05664-1.86328,0-4.39649.05664l-.07519-.77539,2.23047-.64258a.63047.63047,0,0,0,.43554-.58594q.01758-1.21.01856-2.32519V75.93164q0-2.47705-.0752-4.59473l-2.51465-.68066Z"/>
        <path class="cls-1" d="M110.09462,113.24414l-.75635.11426-1.38037-4.97266a17.696,17.696,0,0,0-4.25391-.58594,8.89608,8.89608,0,0,0-7.2788,3.23243,12.826,12.826,0,0,0-2.647,8.39453,12.50818,12.50818,0,0,0,3.0249,8.81054,10.81028,10.81028,0,0,0,8.37549,3.29,19.35361,19.35361,0,0,0,6.334-1.15332l.208.85059a14.49476,14.49476,0,0,1-8.43262,2.57129,13.45033,13.45033,0,0,1-9.87842-3.72461,13.1756,13.1756,0,0,1-3.772-9.8125q0-6.48486,4.1499-10.26563a15.4171,15.4171,0,0,1,10.80518-3.78125,28.94615,28.94615,0,0,1,6.5415.77442l.13232.15137Z"/>
        <path class="cls-1" d="M113.95155,105.96582q3.08351-.605,6.18213-1.34277l.17041.15136q-.09522,1.77685-.104,5.06739-.01026,3.28857-.00977,7.42968a11.49045,11.49045,0,0,1,6.126-2.11718,5.83634,5.83634,0,0,1,4.17822,1.46484,5.64388,5.64388,0,0,1,1.55029,4.30176v6.67383q0,2.17383.0376,3.49707a.67952.67952,0,0,0,.47266.66211l2.11767.64257.03809.7754q-2.49609-.05713-4.35791-.05665-1.86255,0-4.13135.05665l-.07568-.7754,1.87207-.54785a.64578.64578,0,0,0,.49121-.58593q.019-.26514.019-1.19141v-8.24316a4.32542,4.32542,0,0,0-1.11328-3.33692,4.73091,4.73091,0,0,0-3.28174-1.01172,9.85726,9.85726,0,0,0-3.94287.90723V126.876q0,2.3452.03809,4.292a.63841.63841,0,0,0,.47265.66211l1.96631.5664.0376.7754q-2.38183-.05713-4.24414-.05665-1.86255,0-4.396.05665l-.07568-.7754,2.13672-.624a.63078.63078,0,0,0,.51025-.60449q.03736-1.81494.0376-4.63184v-7.90332q0-3.85694-.00928-6.82519-.00951-2.96778-.06591-4.46192l-2.55274-.75586Z"/>
        <path class="cls-1" d="M136.52577,116.47754q3.15967-.605,6.01123-1.32324l.18994.13183V117.499a12.3112,12.3112,0,0,1,6.8628-2.34472l.09472.11328q-.54858,2.8169-1.07763,5.8418l-.75635.13281a19.31419,19.31419,0,0,0-1.021-2.58106,1.62931,1.62931,0,0,0-1.55029-.97363,5.20394,5.20394,0,0,0-2.55225.94531v8.18653q0,2.95019.0376,4.21582a.62694.62694,0,0,0,.47266.64355l2.51465.71777.05664.7754q-2.94873-.05713-4.811-.05665-1.86328,0-4.396.05665l-.07568-.7754,2.19287-.64257a.61217.61217,0,0,0,.47266-.58594q.019-.813.019-2.3252v-6.44726q0-3.082-.07568-4.59473l-2.51465-.68066Z"/>
        <path class="cls-1" d="M169.13905,124.02148a9.52581,9.52581,0,0,1-2.60254,6.9668,8.86659,8.86659,0,0,1-6.61425,2.65625,8.39115,8.39115,0,0,1-6.33106-2.50488,9.04561,9.04561,0,0,1-2.41309-6.55078A9.41851,9.41851,0,0,1,153.705,117.792a8.83577,8.83577,0,0,1,6.69043-2.63769,8.52008,8.52008,0,0,1,6.34033,2.42968A8.75458,8.75458,0,0,1,169.13905,124.02148Zm-14.085.16993a11.16456,11.16456,0,0,0,1.31836,5.75683,4.27521,4.27521,0,0,0,3.918,2.22168,4.1428,4.1428,0,0,0,3.70166-1.957,10.72259,10.72259,0,0,0,1.27148-5.79492,10.44556,10.44556,0,0,0-1.3374-5.69043,4.33359,4.33359,0,0,0-3.88037-2.08008,4.22406,4.22406,0,0,0-3.70166,1.87207A10.06881,10.06881,0,0,0,155.05409,124.19141Z"/>
        <path class="cls-1" d="M189.10438,118.84082a7.30076,7.30076,0,0,1,.26465,2.042v6.75q0,2.21191.0376,3.55371a.68793.68793,0,0,0,.4917.66211l1.90967.54785.0376.7754q-2.3064-.05713-4.16846-.05665-1.86255,0-4.13135.05665l-.07568-.7754,1.79638-.52929q.54786-.189.5669-.60449.019-.26514.019-1.19141v-8.24316a4.46638,4.46638,0,0,0-1.05664-3.33692,4.36524,4.36524,0,0,0-3.13086-1.01172,7.46487,7.46487,0,0,0-3.73437,1.09668v8.26172q0,2.36426.03759,4.33008c.0127.37793.145.59277.39746.64258l2.00391.58593.0376.7754q-2.34448-.05713-4.20606-.05665-1.86327,0-4.396.05665l-.07569-.7754,2.17432-.64257a.59615.59615,0,0,0,.49121-.58594q.019-1.002.019-2.3252v-6.44726q0-2.47706-.07568-4.59473l-2.51465-.68066-.09424-.64258q3.12012-.605,5.979-1.32324l.18945.13183v2.19336a9.98146,9.98146,0,0,1,5.88819-2.32519,5.24575,5.24575,0,0,1,4.92285,2.62793,9.65448,9.65448,0,0,1,6.49414-2.62793,5.57125,5.57125,0,0,1,4.11816,1.48437,5.73845,5.73845,0,0,1,1.48633,4.24414v6.69239q0,2.38329.0376,3.5166a.68934.68934,0,0,0,.51025.66211l2.09863.64257.03809.7754q-2.49609-.05713-4.3667-.05665-1.89111,0-4.14111.05665l-.07569-.7754,1.87159-.54785a.67844.67844,0,0,0,.49169-.58593q.01832-.26514.019-1.19141v-8.24316a4.41857,4.41857,0,0,0-1.07569-3.33692,4.46494,4.46494,0,0,0-3.16845-1.01172A6.47781,6.47781,0,0,0,189.10438,118.84082Z"/>
        <path class="cls-1" d="M221.39638,131.77246a11.70654,11.70654,0,0,1-3.3086,1.4375,12.79889,12.79889,0,0,1-3.15722.43457,9.49628,9.49628,0,0,1-6.7212-2.37305,8.53366,8.53366,0,0,1-2.562-6.58886,9.88729,9.88729,0,0,1,2.39014-6.86231,8.15606,8.15606,0,0,1,6.38867-2.666,6.79866,6.79866,0,0,1,5.21778,1.99414,7.75313,7.75313,0,0,1,1.86572,5.51172,10.52131,10.52131,0,0,1-.05615,1.07714H209.52333q0,4.06641,1.90967,5.81446,1.90942,1.749,5.97412,1.748a23.88461,23.88461,0,0,0,3.876-.33984Zm-3.76221-9.60449v-.56641a6.66928,6.66928,0,0,0-.84277-3.83789,2.9049,2.9049,0,0,0-2.5083-1.15332,3.89254,3.89254,0,0,0-3.37012,1.626,7.41234,7.41234,0,0,0-1.314,3.93164Z"/>
        <path class="cls-1" d="M257.39442,133.2666l-6.63672-20.13574-6.9375,19.98437-1.91064.15137-7.5625-23.2168a4.53107,4.53107,0,0,0-.68994-1.37109,2.13435,2.13435,0,0,0-1.08692-.69043l-1.7207-.5293-.0376-.8125q1.85231.07619,4.38623.0752,2.28737,0,5.18018-.0752l.07568.8125-1.77734.51075a1.097,1.097,0,0,0-.56689.2832.79544.79544,0,0,0-.17041.54883,3.71155,3.71155,0,0,0,.17968.99219q.17944.61523.48194,1.61718l5.12353,16.24024,7.01367-20.9668,1.70313-.13281,6.82422,21.28906,5.332-16.41113q.33984-1.07812.5293-1.72071a3.84868,3.84868,0,0,0,.18945-.98339.62892.62892,0,0,0-.16992-.49121,1.323,1.323,0,0,0-.54883-.2461l-1.77735-.47265-.0371-.86915q2.042.07619,4.14062.0752,2.042,0,3.96875-.0752l.07617.8125-1.91015.60547a1.94281,1.94281,0,0,0-.89649.5293,3.80148,3.80148,0,0,0-.65234,1.24805l-8.20508,23.27343Z"/>
        <path class="cls-1" d="M284.88368,131.77246a11.70059,11.70059,0,0,1-3.30859,1.4375,12.799,12.799,0,0,1-3.15723.43457,9.4975,9.4975,0,0,1-6.72168-2.37305,8.53333,8.53333,0,0,1-2.56152-6.58886,9.89155,9.89155,0,0,1,2.38965-6.86231,8.15813,8.15813,0,0,1,6.38964-2.666,6.79714,6.79714,0,0,1,5.2168,1.99414,7.75114,7.75114,0,0,1,1.86621,5.51172,10.38328,10.38328,0,0,1-.05664,1.07714H273.01063q0,4.06641,1.90918,5.81446,1.91016,1.749,5.97461,1.748a23.88451,23.88451,0,0,0,3.876-.33984ZM281.121,122.168v-.56641a6.67025,6.67025,0,0,0-.8418-3.83789,2.9058,2.9058,0,0,0-2.50879-1.15332,3.892,3.892,0,0,0-3.37012,1.626,7.41267,7.41267,0,0,0-1.31445,3.93164Z"/>
        <path class="cls-1" d="M293.14638,104.77441q-.1128,2.83594-.11328,8.52735v3.83789a10.52764,10.52764,0,0,1,5.60937-1.98535,7.10135,7.10135,0,0,1,5.64746,2.38183,9.14085,9.14085,0,0,1,2.07227,6.22071,9.67462,9.67462,0,0,1-2.67188,7.26953,10.17058,10.17058,0,0,1-7.40527,2.59961,24.11875,24.11875,0,0,1-6.80664-1.07813q.03809-2.40087.03808-6.18262V115.1543q0-4.17774-.07519-7.8086l-2.55274-.75586-.09472-.624q3.10254-.58593,6.16308-1.34277Zm-.11328,26.7334A10.039,10.039,0,0,0,296.12782,132a5.7966,5.7966,0,0,0,4.76367-1.94727,8.59719,8.59719,0,0,0,1.59473-5.57812,8.13108,8.13108,0,0,0-1.47168-5.17969,5.232,5.232,0,0,0-4.3584-1.85351,8.44649,8.44649,0,0,0-3.623.832Z"/>
        <path class="cls-1" d="M331.52626,108.36719a11.60987,11.60987,0,0,0-3.64844-.66211,6.11067,6.11067,0,0,0-3.98047,1.21,4.10182,4.10182,0,0,0-1.4834,3.36523,4.328,4.328,0,0,0,.51954,2.15528,5.51623,5.51623,0,0,0,1.39941,1.626,10.87455,10.87455,0,0,0,1.99414,1.248q1.11621.54785,2.30664,1.07715,1.30518.56837,2.5332,1.20117a11.42964,11.42964,0,0,1,2.22168,1.48438,6.44546,6.44546,0,0,1,1.58789,2.041,6.13762,6.13762,0,0,1,.59571,2.7793,6.50731,6.50731,0,0,1-2.93946,5.748,13.3458,13.3458,0,0,1-7.61035,1.98535,24.88214,24.88214,0,0,1-6.65429-1.02149l-.11426-.15136.92676-6.42774.85058-.13281,1.32324,5.37012a11.05079,11.05079,0,0,0,4.10352.79394,6.92131,6.92131,0,0,0,4.39551-1.248,4.75736,4.75736,0,0,0,1.06836-5.68164,5.1311,5.1311,0,0,0-1.3711-1.57812,11.52991,11.52991,0,0,0-1.957-1.20117q-1.0957-.5376-2.26855-1.06739-1.32276-.56835-2.57129-1.22949a11.942,11.942,0,0,1-2.25879-1.541,6.50611,6.50611,0,0,1-1.61719-2.15528,6.87947,6.87947,0,0,1-.60449-2.97754,5.96811,5.96811,0,0,1,2.86426-5.29394,12.70776,12.70776,0,0,1,7.09961-1.8711,29.90159,29.90159,0,0,1,6.25781.69922l.13184.13184-1.11524,5.89941-.75586.13184Z"/>
        <path class="cls-1" d="M343.13466,117.64941q-.1128,6.39113-.11328,10.30469a4.58019,4.58019,0,0,0,.58593,2.71289,2.71734,2.71734,0,0,0,2.23145.74707,22.29844,22.29844,0,0,0,3.40332-.34082l.11328.85059a13.28052,13.28052,0,0,1-5.8418,1.64551,4.04749,4.04749,0,0,1-3.11816-1.10645,4.76407,4.76407,0,0,1-1.02246-3.33691q0-3.668.13184-11.58985l-2.6084-.64258-.11426-.77539,2.916-.24511,1.333-4.57617q1.08252-.28272,1.97168-.54786l.18848.13184q-.05566,2.28809-.05664,4.27344v.69922h5.6914v1.79589Z"/>
        <path class="cls-1" d="M368.828,124.02148a9.52581,9.52581,0,0,1-2.60254,6.9668,8.86509,8.86509,0,0,1-6.61426,2.65625,8.39039,8.39039,0,0,1-6.33105-2.50488,9.04765,9.04765,0,0,1-2.41309-6.55078,9.42225,9.42225,0,0,1,2.52637-6.79688,8.83651,8.83651,0,0,1,6.69043-2.63769,8.52046,8.52046,0,0,1,6.34082,2.42968A8.75262,8.75262,0,0,1,368.828,124.02148Zm-14.085.16993a11.16932,11.16932,0,0,0,1.31836,5.75683,4.2757,4.2757,0,0,0,3.918,2.22168,4.14147,4.14147,0,0,0,3.70118-1.957A10.72268,10.72268,0,0,0,364.952,124.418a10.44573,10.44573,0,0,0-1.33691-5.69043,4.33439,4.33439,0,0,0-3.88086-2.08008,4.22321,4.22321,0,0,0-3.70117,1.87207A10.06467,10.06467,0,0,0,354.74306,124.19141Z"/>
        <path class="cls-1" d="M371.41884,116.47754q3.15966-.605,6.01172-1.32324l.18945.13183V117.499a12.31262,12.31262,0,0,1,6.86328-2.34472l.09473.11328q-.54931,2.8169-1.07813,5.8418l-.75586.13281a19.30724,19.30724,0,0,0-1.02148-2.58106,1.63,1.63,0,0,0-1.54981-.97363,5.20371,5.20371,0,0,0-2.55273.94531v8.18653q0,2.95019.03809,4.21582a.62546.62546,0,0,0,.47265.64355l2.51465.71777.05664.7754q-2.9502-.05713-4.81152-.05665-1.86328,0-4.39649.05665l-.07519-.7754,2.19336-.64257a.61325.61325,0,0,0,.47265-.58594q.01758-.813.01856-2.3252v-6.44726q0-3.082-.0752-4.59473l-2.51465-.68066Z"/>
        <path class="cls-1" d="M401.8202,131.77246a11.70034,11.70034,0,0,1-3.30859,1.4375,12.79891,12.79891,0,0,1-3.15723.43457,9.49751,9.49751,0,0,1-6.72168-2.37305,8.53337,8.53337,0,0,1-2.56152-6.58886,9.8916,9.8916,0,0,1,2.38965-6.86231,8.15815,8.15815,0,0,1,6.38965-2.666,6.79716,6.79716,0,0,1,5.2168,1.99414,7.75114,7.75114,0,0,1,1.86621,5.51172,10.386,10.386,0,0,1-.05664,1.07714H389.94716q0,4.06641,1.90918,5.81446,1.91016,1.749,5.97461,1.748a23.8844,23.8844,0,0,0,3.876-.33984Zm-3.76269-9.60449v-.56641a6.67017,6.67017,0,0,0-.8418-3.83789,2.90579,2.90579,0,0,0-2.50879-1.15332,3.89194,3.89194,0,0,0-3.37011,1.626,7.41268,7.41268,0,0,0-1.31446,3.93164Z"/>
      </g>
    </g>
  </g>
</svg>
