<?xml version="1.0" encoding="utf-8"?>
<!-- Generator: Adobe Illustrator 24.0.0, SVG Export Plug-In . SVG Version: 6.00 Build 0)  -->
<svg version="1.1" id="Capa_1" xmlns="http://www.w3.org/2000/svg" xmlns:xlink="http://www.w3.org/1999/xlink" x="0px" y="0px"
	 viewBox="0 0 32 32" style="enable-background:new 0 0 32 32;" xml:space="preserve">
<g>
	<path d="M16,0C7.2,0,0,7.2,0,16c0,8.8,7.2,16,16,16c8.8,0,16-7.2,16-16C32,7.2,24.8,0,16,0z M11.8,21.1h-4v-4h4
		C11.8,17.1,11.8,21.1,11.8,21.1z M18,21.1h-4v-4h4V21.1z M18,14.9h-4v-4h4V14.9z M24.2,21.1h-4v-4h4V21.1z M24.2,14.9h-4v-4h4V14.9
		z"/>
</g>
</svg>
