<?xml version="1.0" encoding="utf-8"?>
<!-- Generator: Adobe Illustrator 22.1.0, SVG Export Plug-In . SVG Version: 6.00 Build 0)  -->
<svg version="1.1" id="Layer_1" xmlns="http://www.w3.org/2000/svg" xmlns:xlink="http://www.w3.org/1999/xlink" x="0px" y="0px"
	 viewBox="0 0 496.2 496.2" style="enable-background:new 0 0 496.2 496.2;" xml:space="preserve">
<path d="M248.1,0C111.1,0,0,111.1,0,248.1s111.1,248.1,248.1,248.1s248.1-111.1,248.1-248.1S385.1,0,248.1,0z M385.8,248.7
	l-10.7-9.3v94.5c0,10.5-8.5,19.1-19.1,19.1h-68.3v-59.2c0-13.8-11.1-25-25-25h-28.1c-13.8,0-25,11.1-25,25V353h-67
	c-10.5,0-19.1-8.5-19.1-19.1v-94.4l-10.7,9.2c-5.5,4.8-13.8,4.1-18.4-1.3c-4.8-5.5-4.1-13.8,1.3-18.4l142.5-123.3l2.6-2.3
	c2.3-2.1,5.3-3.1,8.3-3.2c3,0.1,5.9,1.1,8.3,3.2l2.6,2.3l142.6,123.2c5.5,4.8,6.1,13,1.3,18.4C399.5,252.9,391.2,253.4,385.8,248.7z
	"/>
</svg>
