<?xml version="1.0" encoding="utf-8"?>
<!-- Generator: Adobe Illustrator 22.1.0, SVG Export Plug-In . SVG Version: 6.00 Build 0)  -->
<svg version="1.1" id="Layer_1" xmlns="http://www.w3.org/2000/svg" xmlns:xlink="http://www.w3.org/1999/xlink" x="0px" y="0px"
	 viewBox="0 0 384 384" style="enable-background:new 0 0 384 384;" xml:space="preserve">
<title>Asset 2</title>
<g id="Layer_2_1_">
	<g id="Layer_1-2">
		<path d="M384,195.8c-0.4,0.9-0.9,1.7-1.3,2.6c-3.4,8.5-13.1,12.6-21.6,9.1c-6.3-2.6-10.5-8.8-10.3-15.6c-0.1-8.4,5.4-15.4,13.4-17
			c7.8-1.5,15.5,2.7,18.5,10c0.4,0.9,0.9,1.7,1.3,2.6V195.8z"/>
		<path d="M327.8,192c0,74.7-60.9,135.8-135.5,135.8S56.8,266.5,56.9,191.9S117.8,56.4,192.3,56.3S327.8,117.3,327.8,192z"/>
		<path d="M27.9,235.6c9.2-0.1,16.8,7.3,16.8,16.6c0.1,9.2-7.3,16.8-16.6,16.8c-9.2,0.1-16.7-7.3-16.8-16.6
			C11.2,243.2,18.6,235.7,27.9,235.6L27.9,235.6L27.9,235.6z"/>
		<path d="M104.4,57c-9.2-0.1-16.6-7.6-16.5-16.7c0.1-9.2,7.6-16.6,16.7-16.5c9.2,0.1,16.5,7.5,16.5,16.7
			C121,49.6,113.6,57,104.4,57z"/>
		<path d="M121.7,343.9c0,9.2-7.4,16.7-16.6,16.7s-16.7-7.4-16.7-16.6s7.4-16.7,16.6-16.7c0,0,0,0,0,0
			C114.2,327.3,121.6,334.7,121.7,343.9z"/>
		<path d="M162.3,348.1c9.2,0.2,16.5,7.7,16.5,16.8c-0.1,9.1-7.9,16.8-16.8,16.6c-9.2-0.1-16.6-7.6-16.6-16.8
			C145.6,355.4,153.1,348,162.3,348.1L162.3,348.1z"/>
		<path d="M75,304.8c0.1,9.2-7.2,16.7-16.4,16.9c-9.2-0.1-16.6-7.5-16.7-16.6c-0.1-9.2,7.3-16.6,16.4-16.7S74.9,295.6,75,304.8z"/>
		<path d="M238.8,19.1c0,9.1-7.5,16.5-16.6,16.5c-9.1,0-16.5-7.5-16.5-16.6c0-9.1,7.4-16.5,16.5-16.5C231.3,2.5,238.8,10,238.8,19.1
			z"/>
		<path d="M356.4,147.9c-9.2-0.2-16.5-7.7-16.3-16.9s7.7-16.5,16.9-16.3c9.1,0.2,16.4,7.7,16.3,16.8
			C373.1,140.7,365.6,148.1,356.4,147.9z"/>
		<path d="M33.9,192.3c0.1,9.2-7.3,16.6-16.5,16.7c-9.2,0.1-16.6-7.3-16.7-16.5c0,0,0,0,0,0c0-9.2,7.4-16.6,16.5-16.8
			C26.5,175.7,33.9,183.1,33.9,192.3z"/>
		<path d="M57.9,96.2c-9.2,0.2-16.8-7-17-16.2s7-16.8,16.2-17c0.4,0,0.7,0,1.1,0c9.2,0.2,16.5,7.6,16.5,16.8
			C74.6,89,67.1,96.3,57.9,96.2C57.9,96.2,57.9,96.2,57.9,96.2z"/>
		<path d="M279.3,56.4c-9.2-0.1-16.5-7.6-16.4-16.7s7.6-16.5,16.7-16.4c9.1,0.1,16.5,7.5,16.4,16.6c0,9.1-7.4,16.5-16.5,16.5
			C279.4,56.4,279.4,56.4,279.3,56.4z"/>
		<path d="M325.8,95.4c-9.2-0.2-16.4-7.8-16.2-16.9s7.8-16.4,16.9-16.2c9,0.3,16.2,7.7,16.2,16.8c-0.1,9.2-7.7,16.5-16.8,16.4
			C325.9,95.4,325.8,95.4,325.8,95.4z"/>
		<path d="M343,305c-0.2,9.2-7.7,16.4-16.9,16.3c-9.2-0.2-16.4-7.7-16.3-16.9l0,0c0.2-9.2,7.7-16.4,16.9-16.3
			C335.9,288.3,343.2,295.8,343,305z"/>
		<path d="M161.7,36c-9.1,0.1-16.6-7.1-16.7-16.2c0-0.1,0-0.2,0-0.3c-0.1-9.2,7.2-16.7,16.4-16.8c9.2-0.1,16.7,7.2,16.8,16.4
			C178.3,28.3,170.9,35.9,161.7,36C161.7,36,161.7,36,161.7,36z"/>
		<path d="M44.3,132.6c-0.1,9.1-7.4,16.4-16.5,16.5c-9.2,0.1-16.8-7.2-16.9-16.5c-0.1-9.2,7.2-16.8,16.5-16.9
			c9.2-0.1,16.8,7.2,16.9,16.5C44.3,132.3,44.3,132.4,44.3,132.6z"/>
		<path d="M356.7,268.6c-9.2-0.1-16.5-7.6-16.4-16.7s7.6-16.5,16.7-16.4c9.1,0.1,16.5,7.6,16.4,16.7c0,9.2-7.5,16.5-16.6,16.5
			C356.8,268.6,356.8,268.6,356.7,268.6z"/>
		<path d="M239.5,364.7c0,9.2-7.5,16.6-16.7,16.6c-9.2,0-16.6-7.5-16.6-16.7c0-9.2,7.5-16.6,16.7-16.6l0,0
			C232.2,348.1,239.6,355.6,239.5,364.7z"/>
		<path d="M296.5,344c-0.2,9.1-7.7,16.4-16.9,16.2c-9.1-0.2-16.4-7.7-16.2-16.9c0.2-9,7.6-16.3,16.6-16.2
			c9.2,0.1,16.6,7.5,16.5,16.7C296.5,343.9,296.5,344,296.5,344z"/>
	</g>
</g>
</svg>
